<svg id="Layer_1" data-name="Layer 1" xmlns="http://www.w3.org/2000/svg" viewBox="0 0 457.12 192.2"><defs><style>.cls-1{fill:#231f20;}.cls-2,.cls-3{fill:#010101;}.cls-2{fill-rule:evenodd;}</style></defs><path class="cls-1" d="M6.62,101.25,0,89.09H7.58l2.47,4.51,2.43-4.51h7.58l-6.62,12.16v9.18H6.62Z" transform="translate(0)"/><path class="cls-1" d="M17.82,99.77a11.05,11.05,0,0,1,.88-4.35,11.18,11.18,0,0,1,6-6,11.22,11.22,0,0,1,8.71,0,11.4,11.4,0,0,1,3.56,2.4,11.22,11.22,0,0,1,2.4,3.57,11.22,11.22,0,0,1,0,8.71,11.24,11.24,0,0,1-6,6,11.22,11.22,0,0,1-8.71,0,11.22,11.22,0,0,1-3.57-2.4,11.4,11.4,0,0,1-2.4-3.56A11.06,11.06,0,0,1,17.82,99.77Zm6.72,0a4.51,4.51,0,0,0,2.74,4.13,4.23,4.23,0,0,0,1.74.35,4.46,4.46,0,0,0,4.48-4.48A4.26,4.26,0,0,0,33.15,98,4.5,4.5,0,0,0,29,95.29a4.24,4.24,0,0,0-1.74.36A4.52,4.52,0,0,0,24.9,98,4.27,4.27,0,0,0,24.54,99.77Z" transform="translate(0)"/><path class="cls-1" d="M50.72,111a12.24,12.24,0,0,1-3.65-.51,7.5,7.5,0,0,1-2.78-1.53,6.81,6.81,0,0,1-1.78-2.6,10,10,0,0,1-.62-3.68V89.09H48.7v13.28a2.74,2.74,0,0,0,.47,1.71,2.33,2.33,0,0,0,3.1,0,2.74,2.74,0,0,0,.47-1.71V89.09h6.84v13.56a9.82,9.82,0,0,1-.62,3.68,6.72,6.72,0,0,1-1.79,2.6,7.67,7.67,0,0,1-2.8,1.53A12.24,12.24,0,0,1,50.72,111Z" transform="translate(0)"/><path class="cls-1" d="M67.55,103.81a11.26,11.26,0,0,0,1.47.35,10.76,10.76,0,0,0,1.46.25,12.83,12.83,0,0,0,1.65.1c1,0,1.47-.36,1.47-1.09a1.22,1.22,0,0,0-.45-.85q-.45-.42-1.14-1l-1.47-1.16A10.83,10.83,0,0,1,69.07,99a7.17,7.17,0,0,1-1.13-1.87,5.94,5.94,0,0,1-.45-2.38A6.23,6.23,0,0,1,68,92.06a5.38,5.38,0,0,1,1.5-1.92A6.92,6.92,0,0,1,71.79,89a9.56,9.56,0,0,1,2.77-.4c.51,0,1,0,1.53.08l1.38.15,1.38.19v6l-.58-.06-.58-.06c-.21,0-.43,0-.67,0l-.48,0a3.05,3.05,0,0,0-.54.08,1.18,1.18,0,0,0-.45.22.55.55,0,0,0-.19.45c0,.17.14.39.43.64s.64.56,1.06.9.87.73,1.37,1.18a9.77,9.77,0,0,1,1.38,1.54,8.62,8.62,0,0,1,1.05,2,6.53,6.53,0,0,1,.44,2.43,7.62,7.62,0,0,1-.45,2.64A5.66,5.66,0,0,1,79.25,109a6.92,6.92,0,0,1-2.42,1.44,10.39,10.39,0,0,1-3.49.52,19.71,19.71,0,0,1-2.25-.11,17.88,17.88,0,0,1-1.84-.27,16,16,0,0,1-1.7-.38Z" transform="translate(0)"/><path class="cls-1" d="M91.26,111a12.24,12.24,0,0,1-3.65-.51,7.58,7.58,0,0,1-2.78-1.53,6.81,6.81,0,0,1-1.78-2.6,10,10,0,0,1-.62-3.68V89.09h6.82v13.28a2.74,2.74,0,0,0,.46,1.71,1.87,1.87,0,0,0,1.55.59,1.85,1.85,0,0,0,1.55-.59,2.74,2.74,0,0,0,.47-1.71V89.09h6.85v13.56a9.81,9.81,0,0,1-.63,3.68,6.62,6.62,0,0,1-1.79,2.6,7.67,7.67,0,0,1-2.8,1.53A12.2,12.2,0,0,1,91.26,111Z" transform="translate(0)"/><path class="cls-1" d="M101.79,99.77a11.47,11.47,0,0,1,.9-4.62,10.51,10.51,0,0,1,6-5.79,12.16,12.16,0,0,1,4.35-.79,13.3,13.3,0,0,1,3.25.36,14.69,14.69,0,0,1,2.45.8,11.22,11.22,0,0,1,2,1.12l-3.36,5.92a12.07,12.07,0,0,0-1.12-.74,10.81,10.81,0,0,0-1.3-.5,5.61,5.61,0,0,0-1.71-.24A4.69,4.69,0,0,0,110,96.61a4.34,4.34,0,0,0-1.33,3.16,4.16,4.16,0,0,0,.37,1.75,4.49,4.49,0,0,0,1,1.42,4.59,4.59,0,0,0,1.5,1,4.89,4.89,0,0,0,1.89.35,6,6,0,0,0,1.82-.25,6.14,6.14,0,0,0,1.35-.58,4.94,4.94,0,0,0,1.12-.83l3.36,5.92a9.48,9.48,0,0,1-2.05,1.25,17.56,17.56,0,0,1-2.46.83,13.92,13.92,0,0,1-7.91-.43,11,11,0,0,1-3.65-2.29,10.47,10.47,0,0,1-2.4-3.54A11.76,11.76,0,0,1,101.79,99.77Z" transform="translate(0)"/><path class="cls-1" d="M121.92,89.09h6.91V94l4-4.92h8.35l-7.52,9.76,7.91,11.58h-8.23l-4.54-6.59v6.59h-6.91Z" transform="translate(0)"/><path class="cls-2" d="M46.32,30.79v6.15c4.71,0,5.22-6.15,1.46-6.15Zm7.26,13.72h62V69.39h-62Zm-15-3,1.76,1.62,1.81-1.62-.73-11.44h.73V27.8H38.53v2.28h.73Zm7.79-.17V68.94a2.21,2.21,0,0,1-4.41,0V47.2H38.73V68.94a2.21,2.21,0,0,1-4.41,0V41.35c-10.73,0-10.89-15-1.46-15H47.78C57.31,26.38,56.92,41.35,46.32,41.35Zm-12-4.41V30.79H32.86C29.26,30.79,29.39,36.94,34.32,36.94Zm6-22a5.26,5.26,0,1,1-5.26,5.26A5.25,5.25,0,0,1,40.32,14.92Z" transform="translate(0)"/><path class="cls-3" d="M424.43,25.68l-.15.15a4.68,4.68,0,0,0,1,.66,5.52,5.52,0,0,1,.65-1.28,11.16,11.16,0,0,0-2-1.11,2.41,2.41,0,0,0,.5.36.65.65,0,0,1,.36.48A.87.87,0,0,1,424.43,25.68Z" transform="translate(0)"/><path class="cls-3" d="M405.25,28.55a4.69,4.69,0,1,0-4.69,4.68A4.7,4.7,0,0,0,405.25,28.55Z" transform="translate(0)"/><path class="cls-3" d="M426.17,27h0c.2.18.47.47.82.83,1.49,1.57,4.25,4.43,8,5.54a8.44,8.44,0,0,0,1.46-4.08,5.56,5.56,0,0,1,.15-.88l-9.75-2.79A4.57,4.57,0,0,0,426.17,27Z" transform="translate(0)"/><path class="cls-3" d="M394.87,61.67l11.39,1c3.17-7.07-.38-23-.42-23.13l-.19-.85.84.23s2.52.62,6.82-1.9,3.77-9.95,3.71-10.79a3.43,3.43,0,0,1,.71-2.3c.3-.46.46-.71.4-1.08,0-.12-.06-.16-.14-.18a2,2,0,0,0-1.38.38s-.12.53-.25,1.05c-.63,2.57-1.93,7.91-3.45,9.74-2,2.38-9.64,1.13-10.51,1l-.18,0-.52-.61a5.38,5.38,0,0,1-1.14.12,5.29,5.29,0,0,1-1.13-.12,1.69,1.69,0,0,1-1.23,1c-.41,0-1.88.36-3.46,2.64-.77,1.12-.13,4.79.38,7.75.57,3.24.89,5.28.35,6.17C394.8,52.78,394.75,58.2,394.87,61.67Z" transform="translate(0)"/><path class="cls-3" d="M438.9,64.3c0-.31-.31-.63-.77-.8a1,1,0,0,1-.49-.41h0a2.87,2.87,0,0,0-3.68-1.23,5.51,5.51,0,0,0,.19,3.22l3.46.31C438.55,65,438.9,64.6,438.9,64.3Z" transform="translate(0)"/><path class="cls-3" d="M394.1,45.68a42.67,42.67,0,0,1-.74-5.65c-.85,2-1.35,5.35,1.28,9.25C394.54,48.21,394.31,46.87,394.1,45.68Z" transform="translate(0)"/><polygon class="cls-3" points="393.87 62.63 393.87 62.63 368.78 60.44 368.78 70.78 445.13 70.78 450.38 67.56 404.49 63.55 393.87 62.63"/><path class="cls-3" d="M448.26,49.85c-.1.93-.2,1.87-.34,2.86,0,.11,0,.39.05.76l9.14.76,0-3.66Z" transform="translate(0)"/><path class="cls-3" d="M444.83,26.5l-.9-2.35a7.42,7.42,0,0,1-5.84.47c.2,1.28.36,3.23-.35,3.9-.14.13-.18.47-.23.94a9.92,9.92,0,0,1-2.18,5.32c-2.62,3.49-4,18.93-4,19.08L432.46,65l.5,0a9.26,9.26,0,0,1,.24-4.58s1.05-3.4,3-8.76a36.07,36.07,0,0,0,1.44-15.11l1-.15a36.6,36.6,0,0,1-1.5,15.6c-1.9,5.34-2.94,8.69-2.95,8.72h0a3.82,3.82,0,0,1,3.51.84,22.7,22.7,0,0,1,2.09-3.35A32.63,32.63,0,0,0,442.93,53a26.7,26.7,0,0,0,1.79-11.3l1-.06a28,28,0,0,1-1.87,11.77,33.35,33.35,0,0,1-3.24,5.39c-.95,1.37-2.25,3.25-2.15,3.73l0,0a1.9,1.9,0,0,1,1.42,1.74,1.77,1.77,0,0,1-.58,1.25l6.66.58.08-.35c1.3-5.4.79-13,.78-13.06v-.1c2.53-18.9-2-25.95-2-26Z" transform="translate(0)"/><path class="cls-3" d="M440.46,11.14a6.42,6.42,0,1,0,6.42,6.41A6.42,6.42,0,0,0,440.46,11.14Z" transform="translate(0)"/><path class="cls-3" d="M393.92,37.13c1.77-2.54,3.51-3,4.17-3.05a.52.52,0,0,0,.3-.23,5.74,5.74,0,1,1,4.41,0c2.35.38,8,.92,9.31-.65s2.68-7,3.24-9.31a10.87,10.87,0,0,1,.35-1.33,2.76,2.76,0,0,1,2.37-.91,1.22,1.22,0,0,1,1.09,1.07,2.45,2.45,0,0,1-.56,1.81,2.37,2.37,0,0,0-.54,1.64c.11,1.49.43,9.06-4.23,11.78-3.31,1.93-5.66,2.16-6.82,2.11a83.18,83.18,0,0,1,1.45,10.17l22,1.83c.44-4.26,1.71-14.52,3.9-17.71-3.84-1.25-6.61-4.12-8.14-5.71-.31-.34-.57-.6-.75-.77a3.65,3.65,0,0,0-.54-.32,6.69,6.69,0,0,1-1.37-.89,1,1,0,0,1-.39-.76,1.09,1.09,0,0,1,.33-.76c-.49-.35-1.2-1-1.08-1.58,0-.17.19-.56.85-.6,1.06-.06,3.05,1.31,3.6,1.71l10.23,2.9a10,10,0,0,0-.18-3.4,7.46,7.46,0,1,1,7.88-.54l1,2.49c.42.67,4,6.94,2.57,22.74l8.73.71L456.8,0l-88,6.94v40l24.42,2A10.21,10.21,0,0,1,393.92,37.13Z" transform="translate(0)"/><path class="cls-3" d="M89.27,147a9.66,9.66,0,1,0-9.65-9.72A9.64,9.64,0,0,0,89.27,147ZM88,132.24a1.36,1.36,0,1,1,2.72,0V136h2.79a1.36,1.36,0,0,1,0,2.72H89.41a1.37,1.37,0,0,1-1.36-1.36v-5.1Z" transform="translate(0)"/><path class="cls-3" d="M98,164.33H80.57a2.31,2.31,0,0,0,0,4.62H95.66v20.87a2.31,2.31,0,0,0,4.62,0V166.64A2.19,2.19,0,0,0,98,164.33Z" transform="translate(0)"/><circle class="cls-3" cx="64.06" cy="143.07" r="6.73"/><path class="cls-3" d="M63.64,176.7H53.92a4.66,4.66,0,0,1-4.62-3.88L46,154.06a2.35,2.35,0,0,0-4.63.82l3.33,18.76a9.4,9.4,0,0,0,9.25,7.75h8v8.5a2.31,2.31,0,0,0,4.62,0v-10.2A2.91,2.91,0,0,0,63.64,176.7Z" transform="translate(0)"/><path class="cls-3" d="M71.25,166.91H65.14l1.56-7.28,4.35,2.11a3,3,0,0,0,1.36.34h.14l6.52-.27a4.08,4.08,0,0,0,.82-.2l.47.95a1.2,1.2,0,0,0,1,.68,1.59,1.59,0,0,0,.55-.14,1.22,1.22,0,0,0,.54-1.56l-.75-1.63a3.6,3.6,0,0,0,.34-1.43,3.12,3.12,0,0,0-2.44-2.86l-1.3-2.51a1.19,1.19,0,0,0-1.56-.55,1.24,1.24,0,0,0-.54,1.57l.68,1.43-3.88.2s-6.52-3.4-7.34-3.6-4.62-1-4.62-1a4.79,4.79,0,0,0-3.74.68,5.08,5.08,0,0,0-2.18,3.12L52.42,168a5,5,0,0,0,1,4.08,4.82,4.82,0,0,0,3.74,1.76H68a1.29,1.29,0,0,1,1.29,1.29V188.6a3.47,3.47,0,0,0,6.94,0V171.87A4.9,4.9,0,0,0,71.25,166.91Z" transform="translate(0)"/><path class="cls-1" d="M375.88,93.73h6.81V101h3.81V93.73h6.85v21.35H386.5v-7.91h-3.81v7.91h-6.81Z" transform="translate(0)"/><path class="cls-1" d="M395.11,104.42a10.88,10.88,0,0,1,.88-4.35,11.56,11.56,0,0,1,2.4-3.57A11.33,11.33,0,0,1,402,94.1a11.19,11.19,0,0,1,8.7,0,11.33,11.33,0,0,1,3.57,2.4,11.56,11.56,0,0,1,2.4,3.57,11.19,11.19,0,0,1,0,8.7,11.33,11.33,0,0,1-2.4,3.57,11,11,0,0,1-3.57,2.4,11.19,11.19,0,0,1-8.7,0,11,11,0,0,1-3.57-2.4,11.33,11.33,0,0,1-2.4-3.57A10.81,10.81,0,0,1,395.11,104.42Zm6.72,0a4.48,4.48,0,0,0,.35,1.75,4.68,4.68,0,0,0,1,1.42,4.39,4.39,0,0,0,1.43,1,4.5,4.5,0,0,0,3.48,0,4.39,4.39,0,0,0,1.43-1,4.68,4.68,0,0,0,1-1.42,4.48,4.48,0,0,0,.35-1.75,4.4,4.4,0,0,0-.35-1.74,4.46,4.46,0,0,0-2.39-2.39,4.5,4.5,0,0,0-3.48,0,4.46,4.46,0,0,0-2.39,2.39A4.4,4.4,0,0,0,401.83,104.42Z" transform="translate(0)"/><path class="cls-1" d="M416.39,93.73h7.23l2.46,7.46,2.47-7.46h4.67l2.46,7.46,2.47-7.46h7.23l-7,21.35H433l-2.15-6.47-2.14,6.47h-5.31Z" transform="translate(0)"/><path class="cls-1" d="M372,142.82a11.43,11.43,0,0,1,.89-4.62,10.84,10.84,0,0,1,2.43-3.54,10.6,10.6,0,0,1,3.59-2.25,11.87,11.87,0,0,1,4.35-.79,13.83,13.83,0,0,1,3.25.35,17.21,17.21,0,0,1,2.45.8,12.45,12.45,0,0,1,2,1.12l-3.36,5.92a10.84,10.84,0,0,0-1.12-.73,10.61,10.61,0,0,0-1.29-.5,5.61,5.61,0,0,0-1.71-.24,4.74,4.74,0,0,0-1.83.35,4.82,4.82,0,0,0-1.45,1,4.29,4.29,0,0,0-1,1.43,4.4,4.4,0,0,0-.35,1.74,4.16,4.16,0,0,0,.37,1.75,4.46,4.46,0,0,0,1,1.42,4.64,4.64,0,0,0,1.51,1,4.82,4.82,0,0,0,1.89.35,6,6,0,0,0,1.82-.25,6.8,6.8,0,0,0,1.34-.58,4.72,4.72,0,0,0,1.12-.83l3.36,5.92a9.55,9.55,0,0,1-2,1.25,18.2,18.2,0,0,1-2.47.83,13.1,13.1,0,0,1-3.29.38,12.76,12.76,0,0,1-4.61-.81,10.93,10.93,0,0,1-3.65-2.29,10.47,10.47,0,0,1-2.4-3.54A11.58,11.58,0,0,1,372,142.82Z" transform="translate(0)"/><path class="cls-1" d="M399.27,132.13h5.12l8.1,21.35h-6.72l-.71-1.92H398.6l-.71,1.92h-6.72Zm4,14.72-1.44-3.74-1.44,3.74Z" transform="translate(0)"/><path class="cls-1" d="M413,132.13h5.6l5.88,8.23v-8.23h6.69v21.35h-5.63l-5.86-8.19v8.19H413Z" transform="translate(0)"/><path class="cls-1" d="M439.78,132.13H447v21.35h-7.23Z" transform="translate(0)"/><path class="cls-1" d="M374.66,170.53h6.82v7.27h3.81v-7.27h6.84v21.35h-6.84V184h-3.81v7.91h-6.82Z" transform="translate(0)"/><path class="cls-1" d="M394.37,170.53H407v5.6h-5.76v2.37h5.66v5.31h-5.66v2.47h6v5.6h-12.8Z" transform="translate(0)"/><path class="cls-1" d="M409.09,170.53h7.11v15.75h5.88v5.6h-13Z" transform="translate(0)"/><path class="cls-1" d="M439.81,178.66a8.29,8.29,0,0,1-.77,3.76,6.68,6.68,0,0,1-2.09,2.51,9,9,0,0,1-3.11,1.41,15.45,15.45,0,0,1-3.82.45v5.09h-6.81V170.53H430a15.45,15.45,0,0,1,3.82.45,9,9,0,0,1,3.11,1.41A6.76,6.76,0,0,1,439,174.9,8.32,8.32,0,0,1,439.81,178.66ZM430,181h.29a2.61,2.61,0,0,0,1.94-.62,2.47,2.47,0,0,0,.59-1.75,2.44,2.44,0,0,0-.59-1.74,2.57,2.57,0,0,0-1.94-.63H430Z" transform="translate(0)"/><path class="cls-1" d="M441.48,185.57a7,7,0,0,1,.44-2.6,11,11,0,0,1,1-1.94c.36-.55.69-1.06,1-1.5a2.42,2.42,0,0,0,.45-1.35,1.66,1.66,0,0,0-.26-1,1.72,1.72,0,0,0-.67-.58,2.82,2.82,0,0,0-1-.27,10.79,10.79,0,0,0-1.16-.07h-.68v-5.95l1-.16.79-.09.68-.05.79,0a10.89,10.89,0,0,1,3.29.47,7.4,7.4,0,0,1,2.51,1.32,6,6,0,0,1,1.62,2.08,6.3,6.3,0,0,1,.58,2.69,5.75,5.75,0,0,1-.56,2.55c-.38.75-.79,1.48-1.24,2.19s-.85,1.4-1.23,2.08a4.5,4.5,0,0,0-.56,2.17Zm0,1h6.85v5.35h-6.85Z" transform="translate(0)"/><polygon class="cls-1" points="326.41 115.08 288.91 93.43 288.91 136.73 326.41 115.08"/><rect class="cls-1" x="190.4" y="110.43" width="98.51" height="8.34"/></svg>