<svg id="Layer_1" data-name="Layer 1" xmlns="http://www.w3.org/2000/svg" viewBox="0 0 450.11 183.49"><defs><style>.cls-1{fill:#010101;}</style></defs><path class="cls-1" d="M379.47,119.78a1.25,1.25,0,0,0-1.38.41c-1.38,1.52-2.9,3.32-4,4.42a1.69,1.69,0,0,0-.14,1.8,46.89,46.89,0,0,0,5.25,6.35,1.47,1.47,0,0,0,1,.42.84.84,0,0,0,.56-.14,1.52,1.52,0,0,0,.82-1.38L380.44,121A1.47,1.47,0,0,0,379.47,119.78Zm-2.62,5.94a13.2,13.2,0,0,0,1.24-1.38l.42,3.31C378,127,377.4,126.27,376.85,125.72Zm21.41,7.46a1.23,1.23,0,0,0,1-.42,46.89,46.89,0,0,0,5.25-6.35,1.25,1.25,0,0,0-.14-1.66c-1-1.11-2.62-3-4-4.42a1.41,1.41,0,0,0-1.38-.41,1.33,1.33,0,0,0-1,1.1l-1.24,10.64a1.51,1.51,0,0,0,.83,1.38A1.47,1.47,0,0,0,398.26,133.18Zm2.21-8.84c.41.41.83,1,1.24,1.38a18.3,18.3,0,0,1-1.52,1.93Zm24.17,11.46c1.1.69,2.35,1.24,3.59,1.93l-.55,1.25c-1.25-.56-2.49-1.25-3.73-1.94Zm-5.39-1.8c-1.1-.82-2.21-1.79-3.31-2.62l1-1a28.6,28.6,0,0,0,3.18,2.49Zm-1.1,11.74a30.08,30.08,0,0,0,2.76,3l-1,1a23.06,23.06,0,0,1-2.76-3.18ZM412.48,138c.83,1.1,1.52,2.35,2.35,3.31l-1.1.83a29.89,29.89,0,0,1-2.35-3.45Zm-6.21,5.25c.55,1.38,1.1,2.62,1.52,3.87l-1.25.55c-.55-1.25-1-2.49-1.52-3.87Zm43.51-14.5a1.5,1.5,0,0,0-1.25-.56c-15,1.94-25.55-6.07-34.8-13.26-6.91-5.25-13-9.94-19.34-8.84a.5.5,0,0,0-.14-.41,7.64,7.64,0,0,0,2.63-5.8v-3a7.6,7.6,0,0,0-15.2,0v3a7.86,7.86,0,0,0,2.63,5.8c0,.28-.14.55-.14.83a18.2,18.2,0,0,0-5.66,2.35,9.51,9.51,0,0,0-2.35,1.79c-1.8,2.07-6.36,7.32-9,12.16a4.11,4.11,0,0,0,0,3.59c2.07,3.86,7.18,8.84,10.91,11.32L373,173.78a1.48,1.48,0,0,0,.28,1.11,1.58,1.58,0,0,0,1.1.41h6.22a1.67,1.67,0,0,0,1.38-1L389.28,150l7.32,24.31a1.37,1.37,0,0,0,1.38,1h6.22a1.59,1.59,0,0,0,1.1-.41,1.07,1.07,0,0,0,.28-1.11l-1.94-13.26h.69c22.79,0,39.37-11.05,45.72-30.52A1.32,1.32,0,0,0,449.78,128.76ZM399,172.68l-8.29-27.76a1.37,1.37,0,0,0-1.38-1,1.49,1.49,0,0,0-1.38,1l-8.29,27.76H376l5-35.5a1.21,1.21,0,0,0-.69-1.38A35.94,35.94,0,0,1,369.67,125a1.17,1.17,0,0,1,0-1c2.34-4.7,6.76-9.67,8.56-11.6a4.66,4.66,0,0,1,1.79-1.38,19.22,19.22,0,0,1,5.67-2.21,1.6,1.6,0,0,0,1.1-1,21.18,21.18,0,0,0,.56-2.9,1.33,1.33,0,0,0-.56-1.24,4.69,4.69,0,0,1-2.07-4v-3a4.84,4.84,0,0,1,9.67,0v3a5.05,5.05,0,0,1-2.07,4,1.18,1.18,0,0,0-.55,1.24,19.73,19.73,0,0,0,.55,2.9,1.35,1.35,0,0,0,1.1,1,23.06,23.06,0,0,1,5.67,2.21,6.36,6.36,0,0,1,1.65,1.24c1.8,1.93,6.22,6.9,8.57,11.6a1.26,1.26,0,0,1,0,1,36,36,0,0,1-10.64,10.77A1.72,1.72,0,0,0,398,137l5,35.5h-4Zm4.28-14.92-2.76-20c.55-.41,1.24-.83,1.93-1.38.28.69.41,1.52.69,2.21l1.24-.41c-.27-1-.55-1.94-.82-2.76a43.42,43.42,0,0,0,3.59-3.46c.41.69.83,1.38,1.24,2.21l1.24-.69c-.55-1-1-1.79-1.38-2.48a27.07,27.07,0,0,0,3.18-4.42h0a6.31,6.31,0,0,1,.69,1l1.1-.83c-.41-.55-1-1.1-1.38-1.65a3.91,3.91,0,0,0-.41-1.8c-2.49-5-7.18-10.22-9-12.15-.14-.14-.28-.28-.28-.42a67.23,67.23,0,0,1,9.95,6.77c8.84,6.77,19.75,15.19,34.67,14.09C440.25,148.51,424.5,158,403.23,157.76Z"/><circle class="cls-1" cx="23.78" cy="18.02" r="7.36"/><polygon class="cls-1" points="51.87 52.95 52.42 69.69 58.2 89.25 53.87 89.25 46.62 71.76 45.67 65.66 51.87 52.95"/><path class="cls-1" d="M31.15,26.27s-.35.35-6.85,1.31L19.78,38.44l-3-7.57-2.5,2.88,3,14.93L28.9,39.83l11.34,8.3-6,22.29-.36,18.83h4.79l3.11-19.74L51,48.8l1.19-8.43Z"/><rect class="cls-1" x="41.93" y="16.59" width="5.25" height="22.95" transform="matrix(0.57, -0.82, 0.82, 0.57, -3.95, 48.57)"/><rect class="cls-1" x="43.6" y="9.12" width="5.25" height="22.95" transform="translate(2.89 46.74) rotate(-55.12)"/><rect class="cls-1" x="51.88" y="6.36" width="5.25" height="22.95" transform="matrix(0.57, -0.82, 0.82, 0.57, 8.71, 52.35)"/><rect class="cls-1" x="51.2" y="-2.76" width="5.25" height="22.95" transform="translate(15.9 47.89) rotate(-55.12)"/><path class="cls-1" d="M10.58,121h9.8a28.52,28.52,0,0,1-.88-3.13H10.58a3.09,3.09,0,0,0-2.31,1L.92,125.06a3,3,0,0,0-.61,3.52,3.1,3.1,0,0,0,2.83,1.78H96.88A3.12,3.12,0,0,0,99,125a1.3,1.3,0,0,0-.23-.18l-9.65-6.19a3.18,3.18,0,0,0-2-.74H80.52a30.93,30.93,0,0,1-.88,3.13h7.49a1,1,0,0,0,.23.18l9.47,6.07H3.18l7.19-6A1,1,0,0,0,10.58,121Z"/><path class="cls-1" d="M27.08,124.11H72.94a3.11,3.11,0,0,0,2.85-1.83,27.15,27.15,0,0,0,2.34-11.09,28.13,28.13,0,0,0-56.25,0,27,27,0,0,0,2.35,11.09A3.11,3.11,0,0,0,27.08,124.11Z"/><path class="cls-1" d="M65.32,145.88a1.59,1.59,0,0,1-.91.29h-2a13.9,13.9,0,0,1-1.53,3.12h3.49a4.66,4.66,0,0,0,2.72-.87l20-14.22a4.84,4.84,0,0,1,2.18-.71c.33,0,1,0,2,1.64.36.54-.12,2.21-2.94,4.38-10.32,7.9-18.21,14.33-21.12,16.73A6.23,6.23,0,0,0,65,160.91l-1.56,19.2v.25H35.35a.48.48,0,0,1-.16-.12v-.12l-1.56-19.55a6.24,6.24,0,0,0-2.23-4.63c-4.63-3.9-7-5.85-9.49-7.91s-5-4.18-10.13-8.44c-3.76-3.16-3.31-4-2.78-4.92a1.76,1.76,0,0,1,1.7-1.08,5.42,5.42,0,0,1,2.29.64L32.9,148.42a4.66,4.66,0,0,0,2.72.87h3.47a14.34,14.34,0,0,1-1.53-3.12H35.62a1.59,1.59,0,0,1-.91-.29L14.6,131.55a8.66,8.66,0,0,0-3.91-1.09,4.88,4.88,0,0,0-4.43,2.69C4.8,135.76,5.05,138,9.76,142c10.37,8.69,10.55,8.7,19.62,16.34a3.14,3.14,0,0,1,1.11,2.39l1.57,19.64a3.35,3.35,0,0,0,3.25,3.13H63.84a2.89,2.89,0,0,0,2.7-3.13l1.57-19.3a3.1,3.1,0,0,1,1.13-2.41c2.83-2.33,10.71-8.76,21-16.66,4.89-3.75,4.74-7,3.64-8.59s-2.5-3-4.64-3a8.16,8.16,0,0,0-3.84,1.19Z"/><ellipse class="cls-1" cx="50.01" cy="141.3" rx="10.16" ry="10.94"/><circle class="cls-1" cx="50.01" cy="156.93" r="1.56"/><circle class="cls-1" cx="50.01" cy="163.18" r="1.56"/><rect class="cls-1" x="168.67" y="122.85" width="86" height="16.97"/><polygon class="cls-1" points="298.11 130.37 254.67 105.28 254.67 155.44 298.11 130.37"/></svg>