<svg height='100px' width='100px'  fill="#000000" xmlns="http://www.w3.org/2000/svg" data-name="Layer 1" viewBox="0 0 100 100" x="0px" y="0px"><title>Artboard 150</title><circle cx="32.01" cy="23.27" r="7.36" transform="translate(5.32 52.49) rotate(-83.61)"></circle><polygon points="60.09 58.2 60.64 74.94 66.42 94.5 62.09 94.5 54.84 77.01 53.89 70.91 60.09 58.2"></polygon><path d="M39.37,31.52s-.35.35-6.85,1.31L28,43.69l-3-7.57L22.5,39l3,14.93,11.62-8.85,11.34,8.3-6,22.29L42.1,94.5h4.79L50,74.76,59.2,54.05l1.19-8.43Z"></path><rect x="41.31" y="30.69" width="22.95" height="5.25" transform="translate(28.53 -24.2) rotate(34.88)"></rect><rect x="42.97" y="23.22" width="22.95" height="5.25" transform="translate(24.56 -26.49) rotate(34.88)"></rect><rect x="51.26" y="20.46" width="22.95" height="5.25" transform="translate(24.47 -31.73) rotate(34.88)"></rect><rect x="50.58" y="11.34" width="22.95" height="5.25" transform="translate(19.13 -32.98) rotate(34.88)"></rect></svg>