<svg height='100px' width='100px'  fill="#000000" xmlns="http://www.w3.org/2000/svg" data-name="Layer 1" viewBox="0 0 128 128" x="0px" y="0px"><title>miscellaneous109 SOLID</title><path d="M13.52832,48,26.072,47.99994A38.5217,38.5217,0,0,1,24.94373,44H13.52832a3.98916,3.98916,0,0,0-2.96106,1.30713L1.16052,53.20605a3.91128,3.91128,0,0,0-.7774,4.5083A3.9721,3.9721,0,0,0,4.00146,60h119.991a3.99951,3.99951,0,0,0,2.75018-6.90771,2.05055,2.05055,0,0,0-.29395-.22949l-12.35425-7.91553A3.98771,3.98771,0,0,0,111.50745,44h-8.45734a38.56,38.56,0,0,1-1.12811,3.99957l9.5874-.00006a1.98618,1.98618,0,0,0,.29492.23145L123.92993,56,4.05127,56.00146l9.2085-7.73193A2.05977,2.05977,0,0,0,13.52832,48Z"></path><path d="M34.64667,52H93.34723a3.97983,3.97983,0,0,0,3.64471-2.34375,34.74475,34.74475,0,0,0,3.007-14.20264C99.999,15.9043,83.84863,0,63.997,0S27.99493,15.9043,27.99493,35.45361a34.74475,34.74475,0,0,0,3.007,14.20264A3.98,3.98,0,0,0,34.64667,52Z"></path><path d="M83.5954,79.8551a2.00979,2.00979,0,0,1-1.16608.37262H79.92609a18.35821,18.35821,0,0,1-1.95721,4h4.46045a5.97717,5.97717,0,0,0,3.48718-1.11487l25.5451-18.19745A6.20629,6.20629,0,0,1,114.25873,64c.42072,0,1.20392,0,2.60419,2.09943.46411.69574-.14819,2.83209-3.76678,5.603-13.20331,10.11029-23.3,18.34937-27.02814,21.42236A7.9612,7.9612,0,0,0,83.16443,99.101l-1.99512,24.57477-.01312.16156v.16248L45.232,124a.63081.63081,0,0,1-.20734-.16174l-.01251-.15692L43.01666,98.6665A7.98787,7.98787,0,0,0,40.165,92.7309c-5.92773-4.98987-8.94543-7.48279-12.14032-10.122-3.18323-2.62964-6.47491-5.34882-12.9679-10.79517-4.82117-4.04413-4.23694-5.08972-3.56036-6.30048a2.24527,2.24527,0,0,1,2.1698-1.38782,6.87166,6.87166,0,0,1,2.932.82245l25.49945,18.165a5.97683,5.97683,0,0,0,3.48712,1.11487h4.43817a18.35642,18.35642,0,0,1-1.95752-4H45.58478a2.00993,2.00993,0,0,1-1.16608-.37262L18.67993,61.51959a10.99989,10.99989,0,0,0-5.01367-1.39417,6.21553,6.21553,0,0,0-5.662,3.43677c-1.87207,3.35022-1.558,6.24994,4.48157,11.316,13.2627,11.12482,13.49762,11.14362,25.103,20.91272a4.01143,4.01143,0,0,1,1.42969,3.06189l2.006,25.14655A4.29242,4.29242,0,0,0,45.18359,128H81.70093c2.13647,0,3.45557-1.93256,3.45557-4.00061l2.006-24.70929a3.98084,3.98084,0,0,1,1.45007-3.0788c3.61865-2.98285,13.71381-11.22388,26.91571-21.33307,6.26245-4.79535,6.07056-8.88757,4.66266-10.99829C118.77448,61.75635,116.98761,60,114.25873,60a10.28525,10.28525,0,0,0-4.92456,1.51959Z"></path><ellipse cx="63.99623" cy="74" rx="13.00089" ry="14"></ellipse><circle cx="63.99571" cy="94" r="2.00008"></circle><circle cx="63.99571" cy="102" r="2.00008"></circle></svg>