<svg id="Layer_1" data-name="Layer 1" xmlns="http://www.w3.org/2000/svg" viewBox="0 0 409.93 256.74"><defs><style>.cls-1,.cls-2{fill:#010101;}.cls-2{fill-rule:evenodd;}.cls-3{fill:#231f20;}</style></defs><rect class="cls-1" x="246.15" y="174.59" width="5" height="5"/><rect class="cls-1" x="241.15" y="169.59" width="5" height="5"/><rect class="cls-1" x="211.15" y="169.59" width="5" height="5"/><rect class="cls-1" x="206.15" y="174.59" width="5" height="5"/><polygon class="cls-1" points="246.15 194.59 246.15 184.59 241.15 184.59 241.15 179.59 236.15 179.59 236.15 169.59 241.15 169.59 241.15 164.59 231.15 164.59 231.15 159.59 236.15 159.59 236.15 149.59 231.15 149.59 231.15 144.59 226.15 144.59 226.15 149.59 221.15 149.59 221.15 159.59 226.15 159.59 226.15 164.59 216.15 164.59 216.15 169.59 221.15 169.59 221.15 179.59 216.15 179.59 216.15 184.59 211.15 184.59 211.15 194.59 221.15 194.59 221.15 199.59 216.15 199.59 216.15 204.59 226.15 204.59 226.15 194.59 231.15 194.59 231.15 204.59 241.15 204.59 241.15 199.59 236.15 199.59 236.15 194.59 246.15 194.59"/><rect class="cls-1" x="201.15" y="169.59" width="5" height="5"/><rect class="cls-1" x="171.15" y="169.59" width="5" height="5"/><rect class="cls-1" x="166.15" y="174.59" width="5" height="5"/><polygon class="cls-1" points="201.15 199.59 201.15 179.59 196.15 179.59 196.15 169.59 201.15 169.59 201.15 164.59 191.15 164.59 191.15 159.59 196.15 159.59 196.15 149.59 191.15 149.59 191.15 144.59 186.15 144.59 186.15 149.59 181.15 149.59 181.15 159.59 186.15 159.59 186.15 164.59 176.15 164.59 176.15 169.59 181.15 169.59 181.15 179.59 176.15 179.59 176.15 199.59 171.15 199.59 171.15 204.59 176.15 204.59 176.95 204.59 181.15 204.59 181.15 189.59 186.15 189.59 186.15 179.59 191.15 179.59 191.15 189.59 196.15 189.59 196.15 204.59 200.05 204.59 201.15 204.59 206.15 204.59 206.15 199.59 201.15 199.59"/><path class="cls-2" d="M158.12,255.5a.07.07,0,0,0,.09.06c.28-.06,1.23-.26,1.27-.24a1,1,0,0,1,0,.53,7.94,7.94,0,0,1-1.25.24.15.15,0,0,0-.12.11h0a.1.1,0,0,0,.12.11,10.22,10.22,0,0,1,1.28-.21,1.19,1.19,0,0,1,0,.7c-.05.05-1.1.25-1.51.33a.4.4,0,0,0-.26.18h0l1.79-.3a1.66,1.66,0,0,0,1-.76,4.94,4.94,0,0,0,.39-2.4,4.45,4.45,0,0,0-1.43,0,14.88,14.88,0,0,0-1.8.49.14.14,0,0,0-.09.13h0a.06.06,0,0,0,.08.06c.36-.1,1.78-.51,1.81-.49a3.71,3.71,0,0,1,0,1.05s-1,.21-1.28.27a.11.11,0,0,0-.09.14Zm71.47-8.07c-9.05,0-7.93,10.79-7.82,11.73,0,0,0,0-.05,0a3.47,3.47,0,0,0-1.08-.22c-.74-.05-41.57.36-41.57.36s.8-11.51-8.09-11.51-7.7,10.31-7,11.51a53.26,53.26,0,0,1-6.56-1.27c-.22-.09-.4-.48-.4-.48a.13.13,0,0,1,.05-.22c.22-.09.57-.25.63-.39a5.67,5.67,0,0,0-.25-1.69.51.51,0,0,0-.18-.2.2.2,0,0,1-.06-.24,7.65,7.65,0,0,0,.49-3.33,2.82,2.82,0,0,1,.28-1.25c3.87-5.27,19.75-6.53,23.87-6.87a3.22,3.22,0,0,0,1.14-.31c4.83-2.34,12.86-7.88,26.22-8.27,13.88-.4,28.58,5.63,31.5,7,4,1.31,4.22-.5,4.21.39a5.92,5.92,0,0,0,.17,1.89,4.48,4.48,0,0,1,.44,2.56,8.25,8.25,0,0,0,1.23,4.44.59.59,0,0,1,.08.37c-.06.73-.15,1.75-.19,2.21a.85.85,0,0,1-.15.48,23.22,23.22,0,0,1-2.31,3c-.93.67-7,1.19-7,1.19S239.05,247.43,229.59,247.43Zm-26.83-1.81a2.12,2.12,0,0,0,.91-.75,19.33,19.33,0,0,0-3.39.24,3,3,0,0,0-1,.64S202.28,245.75,202.76,245.62Zm20.18-1.28a2.77,2.77,0,0,0,1-.73,21.69,21.69,0,0,0-3.56.37,2.63,2.63,0,0,0-.9.58S222.45,244.48,222.94,244.34Zm7.63-5.05A65.46,65.46,0,0,0,208.65,236a41.24,41.24,0,0,0-18.89,5c-3.18,1.9-3.62,2.14-4,2.39a1.73,1.73,0,0,0-.57.75l23.24-1C217.7,242.73,226.26,242,230.57,239.29Zm-20.78-3a61.53,61.53,0,0,0-1.19,6.29,114.64,114.64,0,0,0,14-1.24,38.34,38.34,0,0,0-2.73-4.29A64.26,64.26,0,0,0,209.79,236.33Zm10.49.8a35.41,35.41,0,0,1,2.6,4.2,18.22,18.22,0,0,0,5.63-1.51s-.29-.47-.69-.8C226.75,238.34,220.77,237.13,220.28,237.13Zm-12.5-.8c-.89,2.12-1.71,4.28-2.49,6.49,1,0,2-.11,2.89-.2l1.19-6.29C208.87,236.32,208.27,236.32,207.78,236.33ZM197,238.2a30.26,30.26,0,0,0-6.77,2.83l.86,0,.74.37.31,1.67-.39.47c5.67-.25,11-.5,13-.74l2.53-6.49S203.86,236.09,197,238.2Zm47.65,5.94c-.33-.59-1.05-.75-2-.58a8.31,8.31,0,0,0-2.06,1.26s-1.12.63-1.12.85.11.38.88.49,4.66.19,4.66.19A2.87,2.87,0,0,0,244.69,244.14Zm-86,5.77c.18.16.16.22.33.22s.82-.23.87-.22,0,.23.07.23a10.13,10.13,0,0,0,2.34-.77,28.91,28.91,0,0,0,3-2.17s-2,0-2.46.08C162.16,247.41,158.38,249.65,158.69,249.91Zm20.62-1.63a6.23,6.23,0,0,0,2.08-1.18,6.67,6.67,0,0,0-3.07.05C178.08,247.41,179.09,248.28,179.31,248.28Zm52-9.08-.61-.2a66.29,66.29,0,0,0-22-3.36h-.14a41.67,41.67,0,0,0-18.9,5h0l-3.21,1.91c-.45.27-.64.38-.82.5a1.93,1.93,0,0,0-.7.89v0l-.06.09a10.69,10.69,0,0,0-1,1.59,6.71,6.71,0,0,0-.3,1.8v.11c-.05.65,0,3.1,0,3.52v0c.31,3,.49,4.82.49,5v.18a5.8,5.8,0,0,0,.08,1.24.58.58,0,0,1,0,.14c0,.12.07.22.16.27h.2c.77,0,5.35-.07,26.49-.41l4.87-.08a1.64,1.64,0,0,0,.81-.48c.21-.21,5.57-7,5.62-7.07a59.75,59.75,0,0,0,4.31-5.78c.08-.15.16-.29.23-.4a1.75,1.75,0,0,0,.33-1.13c0-.49-.41-.53-.64-.55a.78.78,0,0,1-.19,0c-.16-.07-.75-.28-1-.39a18,18,0,0,0,5.43-2.09Zm-25.94,18.15-20.86.32a.24.24,0,0,0,0-.07.58.58,0,0,0-.06-.17,9.67,9.67,0,0,1,0-1.13.87.87,0,0,0,0-.18c0-.2-.31-3.21-.49-5v0c0-.4-.05-2.85,0-3.47v-.11a6.36,6.36,0,0,1,.29-1.71,8.53,8.53,0,0,1,.83-1.4l20.9-.88a6,6,0,0,0-.56,2.39v7.7a8.46,8.46,0,0,0,.1,1.09,4.49,4.49,0,0,1,.07.67C205.47,256.12,205.37,257.06,205.34,257.35Zm20.89-15a.82.82,0,0,0,.28.06c.27,0,.36,0,.36.26a1.42,1.42,0,0,1-.28,1,3.31,3.31,0,0,0-.24.43,62.56,62.56,0,0,1-4.28,5.72c-.88,1.12-5.42,6.87-5.59,7a1.39,1.39,0,0,1-.6.4l-4.88.08-5.18.08c0-.32.06-1.25.06-2a5.07,5.07,0,0,0-.08-.73,7.9,7.9,0,0,1-.09-1v-7.7a5.78,5.78,0,0,1,.64-2.39v0l2.06-.09a98.66,98.66,0,0,0,16.31-1.64l.13,0S226,242.21,226.23,242.31ZM171,262.16a6.75,6.75,0,1,1,6.74-6.75A6.74,6.74,0,0,1,171,262.16Zm0-1a5.75,5.75,0,1,1,5.74-5.75A5.75,5.75,0,0,1,171,261.16Zm0,0a5.75,5.75,0,1,1,5.74-5.75A5.75,5.75,0,0,1,171,261.16Zm0-4.34a1.41,1.41,0,1,1,1.4-1.41A1.41,1.41,0,0,1,171,256.82Zm0-.49a.92.92,0,1,1,.92-.92A.92.92,0,0,1,171,256.33Zm.81-6a4.47,4.47,0,0,0-1.63,0l.41,3.28c0-.14.8-.14.8,0Zm-1.2,6.89c0,.14.8.14.8,0l.4,3.28a4.47,4.47,0,0,1-1.63,0Zm-4.69-2.62a4.47,4.47,0,0,0,0,1.63l3.27-.41c-.13,0-.13-.79,0-.79Zm6.88,1.21c.14,0,.14-.8,0-.8l3.28-.41a4.47,4.47,0,0,1,0,1.63Zm-6,2.62A4.53,4.53,0,0,0,168,259.6l2-2.61c-.1.1-.66-.47-.56-.56Zm8.34-6a4.57,4.57,0,0,0-1.16-1.16l-2,2.61c.1-.1.67.47.57.57ZM168,251.26a4.34,4.34,0,0,0-1.15,1.15l2.6,2c-.1-.1.47-.66.57-.56Zm4,5.72c.1.09.66-.47.56-.57l2.61,2A4.57,4.57,0,0,1,174,259.6Zm63.78-4.19a6.74,6.74,0,1,0-3.58,8.83A6.73,6.73,0,0,0,235.76,252.79Zm-.92.38a5.74,5.74,0,1,0-3,7.53A5.73,5.73,0,0,0,234.84,253.17Zm0,0a5.74,5.74,0,1,0-3,7.53A5.73,5.73,0,0,0,234.84,253.17Zm.34-.14a6.1,6.1,0,1,0-3.24,8A6.11,6.11,0,0,0,235.18,253Zm-58.58,0a6.1,6.1,0,1,0-3.24,8A6.11,6.11,0,0,0,176.6,253Zm54.25,1.84a1.41,1.41,0,1,0-.75,1.84A1.4,1.4,0,0,0,230.85,254.87Zm-.45.19a.92.92,0,1,0-.49,1.2A.91.91,0,0,0,230.4,255.06Zm-2.07-4.63a4.52,4.52,0,0,0-1.5.63l1.65,2.86c0-.12.68-.44.73-.31Zm2.46,10a4.52,4.52,0,0,0,1.5-.63l-1.65-2.86c.05.12-.68.44-.74.31Zm-6.23-3.77a4.39,4.39,0,0,0,.64,1.51l2.86-1.66c-.13.06-.44-.68-.31-.73Zm10-2.45a4.59,4.59,0,0,0-.64-1.51l-2.86,1.66c.13-.06.44.68.31.73Zm-7.67,5.63a4.46,4.46,0,0,0,1.52.61l.85-3.19c0,.13-.79-.17-.74-.3Zm5.33-8.81a4.33,4.33,0,0,0-1.51-.61l-.85,3.19c0-.13.79.17.74.3Zm-7.06,1.74a4.4,4.4,0,0,0-.62,1.52l3.2.85c-.13,0,.17-.79.3-.74Zm8.8,5.33a4.4,4.4,0,0,0,.62-1.52l-3.2-.85c.13.05-.17.79-.3.74Z" transform="translate(0 -5.42)"/><path class="cls-1" d="M148.75,137.81a23.54,23.54,0,0,0-12.6-9.8c12-2.8,20.8-12.6,20.8-24a2,2,0,1,0-4,0,18.4,18.4,0,0,1-2.4,9c-1.2-1-3-3.2-4.8-8a2.08,2.08,0,0,0-2.6-1.2,2,2,0,0,0-1.2,1,2.21,2.21,0,0,0,0,1.6c2.2,5.6,4.4,8.6,6.2,10a19,19,0,0,1-4.2,3.8,16.5,16.5,0,0,0-.6-4.2,1.9,1.9,0,0,0-2.4-1.4c-.6.2-1,.4-1.2,1a2.13,2.13,0,0,0-.2,1.6,13.12,13.12,0,0,1,.2,5.6,27.53,27.53,0,0,1-21.8,0,18.37,18.37,0,0,1,.2-5.8,2,2,0,1,0-3.8-1,43.56,43.56,0,0,0-.6,4.4,15.93,15.93,0,0,1-3.4-3,26.58,26.58,0,0,0,5.8-9.6,1.92,1.92,0,0,0-1.2-2.6,2.08,2.08,0,0,0-2.6,1.2A24.74,24.74,0,0,1,108,114a17.79,17.79,0,0,1-3-10,2,2,0,0,0-4,0c0,11.4,9,21.2,21,24a23,23,0,0,0-12.6,9.8c-7.6-11.2-20.4-7-21.2-7.4.4.6,1.6,16.4,17.8,17.6a18.4,18.4,0,0,0,.4,6.6l9.8,33.4A12.89,12.89,0,0,0,129,198a13.56,13.56,0,0,0,13.2-9.8c8.8-31.4,10.4-32,10.4-37.8v-2.2c16.4-1.4,17.2-17,17.6-17.6C169.55,130.61,156.15,127,148.75,137.81ZM118,160.41s-2.8-2.2-2.8-5.2S118,150,118,150s2.8,2.2,2.8,5.2S118,160.41,118,160.41Zm11,26.2a5.38,5.38,0,0,1-5.4-5.4h10.6A5.09,5.09,0,0,1,129,186.61Zm2.4-31.6v16.4a2.4,2.4,0,0,1-4.8,0V155c0-7-10.6-11.4-11.4-11.8a2.37,2.37,0,1,1,2.2-4.2c1.2.8,8,3.4,11.6,9,3.8-5.4,10.4-8.2,11.6-9a2.11,2.11,0,0,1,3,1,2.33,2.33,0,0,1-1,3.2C142,143.61,131.35,148,131.35,155Zm10.2,5.4s-3-2.2-3-5.2,3-5.2,3-5.2,2.8,2.2,2.8,5.2S141.55,160.41,141.55,160.41Z" transform="translate(0 -5.42)"/><path class="cls-1" d="M274.68,139.18a3.71,3.71,0,0,0,5.25,0h0l5.27-5.27,2.63,2.63-5.27,5.27a11,11,0,0,0-3.15,6.31,14.84,14.84,0,0,0-12.63,4.21c-2.42,2.42-.19,7.48,3.66,12.14l-2.35,2.34a3.73,3.73,0,0,0,5.27,5.27l2.35-2.35c4.65,3.85,9.71,6.08,12.12,3.66a15.35,15.35,0,0,0,4-12.6,11.14,11.14,0,0,0,6.53-3.18l5.27-5.27,2.63,2.63L301,160.24a3.7,3.7,0,0,0,0,5.24h0l18.43,18.43a3.71,3.71,0,0,0,5.25,0h0l15.8-15.81a3.71,3.71,0,0,0,0-5.25h0L322,144.44a3.72,3.72,0,0,0-5.25,0h0l-5.27,5.27-2.63-2.63,10.47-10.53a3.75,3.75,0,0,0,0-5.28L308.9,120.81a3.74,3.74,0,0,0-5.28,0h0L293.1,131.28l-2.63-2.63,5.27-5.27a3.71,3.71,0,0,0,0-5.25h0L277.3,99.7a3.72,3.72,0,0,0-5.25,0h0l-15.8,15.8a3.7,3.7,0,0,0,0,5.24h0Zm9.23,27.14a29.55,29.55,0,0,1-5.7-4.37,32,32,0,0,1-4.39-5.66s5.85-1.61,8.75,1.3,1.34,8.74,1.34,8.74Zm48.66-.83L322.05,176l-3.95-4,10.52-10.52Zm-13.16-13.15,3.95,3.94-10.53,10.53-3.95-3.95Zm-13.15-23.69,5.26,5.26-18.43,18.43a3.72,3.72,0,0,1-5.26-5.26Zm-18.43-7.89-10.52,10.52-3.95-3.94,10.53-10.53ZM274.67,107.6l3.95,4L268.1,122.07l-4-3.95Z" transform="translate(0 -5.42)"/><path class="cls-3" d="M7.45,19.67,0,6H8.53l2.77,5.08L14,6h8.53L15.12,19.67V30H7.45Z" transform="translate(0 -5.42)"/><path class="cls-3" d="M22.57,18a12.3,12.3,0,0,1,1-4.9,12.59,12.59,0,0,1,6.72-6.71,12.6,12.6,0,0,1,9.79,0,12.61,12.61,0,0,1,6.71,6.71,12.6,12.6,0,0,1,0,9.79,12.59,12.59,0,0,1-6.71,6.72,12.6,12.6,0,0,1-9.79,0,12.56,12.56,0,0,1-6.72-6.72A12.21,12.21,0,0,1,22.57,18Zm7.56,0a4.81,4.81,0,0,0,.4,2,5.07,5.07,0,0,0,2.68,2.68,5,5,0,0,0,3.92,0,5,5,0,0,0,1.61-1.08A5.25,5.25,0,0,0,39.82,20a5.12,5.12,0,0,0,0-3.92,5,5,0,0,0-2.69-2.69,5.12,5.12,0,0,0-3.92,0,5.25,5.25,0,0,0-1.6,1.08,5,5,0,0,0-1.08,1.61A4.77,4.77,0,0,0,30.13,18Z" transform="translate(0 -5.42)"/><path class="cls-3" d="M59.58,30.62a13.45,13.45,0,0,1-4.1-.58,8.4,8.4,0,0,1-3.14-1.73,7.48,7.48,0,0,1-2-2.91,11.14,11.14,0,0,1-.71-4.14V6h7.67V20.93a3.06,3.06,0,0,0,.52,1.93,2.62,2.62,0,0,0,3.5,0,3.12,3.12,0,0,0,.52-1.93V6h7.7V21.26a11.15,11.15,0,0,1-.7,4.14,7.43,7.43,0,0,1-2,2.91A8.45,8.45,0,0,1,63.68,30,13.45,13.45,0,0,1,59.58,30.62Z" transform="translate(0 -5.42)"/><path class="cls-3" d="M72,6h8.28a14.21,14.21,0,0,1,4.27.62,9.63,9.63,0,0,1,3.4,1.8,8.25,8.25,0,0,1,2.25,2.93,9.41,9.41,0,0,1,.81,4,8.38,8.38,0,0,1-.5,3.06,9.42,9.42,0,0,1-1.12,2.09,7.86,7.86,0,0,1-1.62,1.59L92.23,30h-9l-3.6-6.09V30H72ZM79.63,17.8H80a4.2,4.2,0,0,0,2.32-.61,2.26,2.26,0,0,0,1-2.05,2.25,2.25,0,0,0-1-2.05A4.2,4.2,0,0,0,80,12.47h-.4Z" transform="translate(0 -5.42)"/><path class="cls-3" d="M101.23,15.35,98,11.57,103.25,6H109V30h-7.78Z" transform="translate(0 -5.42)"/><path class="cls-3" d="M130.35,18q0,6.12-2.55,9.36a9.47,9.47,0,0,1-14.26,0Q111,24.14,111,18t2.55-9.36a9.47,9.47,0,0,1,14.26,0Q130.35,11.9,130.35,18ZM123,18c0-3.77-.76-5.65-2.3-5.65s-2.3,1.88-2.3,5.65.76,5.65,2.3,5.65S123,21.79,123,18Z" transform="translate(0 -5.42)"/><path class="cls-3" d="M145,19.67,137.55,6h8.54l2.77,5.08L151.59,6h8.54l-7.46,13.68V30H145Z" transform="translate(0 -5.42)"/><path class="cls-3" d="M160.66,6h14.15v6.3h-6.48V15h6.37v6h-6.37v2.78h6.73V30h-14.4Z" transform="translate(0 -5.42)"/><path class="cls-3" d="M184.35,6h5.76l9.11,24h-7.56l-.79-2.16H183.6L182.8,30h-7.56Zm4.5,16.56-1.62-4.21-1.62,4.21Z" transform="translate(0 -5.42)"/><path class="cls-3" d="M199.76,6H208a14.21,14.21,0,0,1,4.27.62,9.72,9.72,0,0,1,3.4,1.8A8.25,8.25,0,0,1,218,11.34a9.41,9.41,0,0,1,.81,4,8.16,8.16,0,0,1-.51,3.06,9,9,0,0,1-1.11,2.09,7.86,7.86,0,0,1-1.62,1.59L220,30h-9l-3.6-6.09V30h-7.67Zm7.67,11.81h.39a4.21,4.21,0,0,0,2.33-.61,2.26,2.26,0,0,0,.95-2.05,2.25,2.25,0,0,0-.95-2.05,4.22,4.22,0,0,0-2.33-.62h-.39Z" transform="translate(0 -5.42)"/><path class="cls-3" d="M227.41,18a12.3,12.3,0,0,1,1-4.9,12.61,12.61,0,0,1,6.71-6.71,12.6,12.6,0,0,1,9.79,0,12.59,12.59,0,0,1,6.72,6.71,12.6,12.6,0,0,1,0,9.79,12.56,12.56,0,0,1-6.72,6.72,12.6,12.6,0,0,1-9.79,0,12.59,12.59,0,0,1-6.71-6.72A12.21,12.21,0,0,1,227.41,18ZM235,18a5,5,0,0,0,.39,2,5.25,5.25,0,0,0,1.08,1.6,5,5,0,0,0,1.61,1.08,5,5,0,0,0,3.92,0A5.07,5.07,0,0,0,244.65,20a5,5,0,0,0,0-3.92,5,5,0,0,0-1.08-1.61,5.25,5.25,0,0,0-1.6-1.08,5.12,5.12,0,0,0-3.92,0,5,5,0,0,0-2.69,2.69A4.93,4.93,0,0,0,235,18Z" transform="translate(0 -5.42)"/><path class="cls-3" d="M254.59,6h8V23.71h6.62V30H254.59Z" transform="translate(0 -5.42)"/><path class="cls-3" d="M270.46,30V6h6.66a22.08,22.08,0,0,1,6,.76A11.94,11.94,0,0,1,287.62,9a9.84,9.84,0,0,1,2.77,3.76,13.33,13.33,0,0,1,.95,5.2,13.33,13.33,0,0,1-.95,5.2A9.87,9.87,0,0,1,287.62,27a12.26,12.26,0,0,1-4.47,2.28,21.3,21.3,0,0,1-6,.78Zm7.67-6.84a6.22,6.22,0,0,0,4.18-1.28A4.91,4.91,0,0,0,283.78,18a4.85,4.85,0,0,0-1.47-3.89,6.27,6.27,0,0,0-4.18-1.26Z" transform="translate(0 -5.42)"/><path class="cls-3" d="M300,18a12.93,12.93,0,0,1,1-5.2,11.93,11.93,0,0,1,2.74-4,11.8,11.8,0,0,1,4-2.54,13.51,13.51,0,0,1,4.89-.88,15.56,15.56,0,0,1,3.66.39,18.5,18.5,0,0,1,2.75.9A13.76,13.76,0,0,1,321.37,8l-3.78,6.66c-.39-.28-.81-.56-1.26-.82a11.23,11.23,0,0,0-1.46-.56,6.38,6.38,0,0,0-1.93-.27,5.27,5.27,0,0,0-2.05.39,5.56,5.56,0,0,0-1.64,1.08,5.17,5.17,0,0,0-1.1,1.61,4.93,4.93,0,0,0-.39,2,4.81,4.81,0,0,0,.41,2,5.08,5.08,0,0,0,1.14,1.6A5.2,5.2,0,0,0,311,22.66a5.45,5.45,0,0,0,2.12.4,6.76,6.76,0,0,0,2.05-.29,7.53,7.53,0,0,0,1.52-.65,5.41,5.41,0,0,0,1.26-.93l3.78,6.66a11.15,11.15,0,0,1-2.31,1.4,19.34,19.34,0,0,1-2.77.94,14.83,14.83,0,0,1-3.71.43,14.28,14.28,0,0,1-5.18-.92,12.29,12.29,0,0,1-4.11-2.57,11.62,11.62,0,0,1-2.69-4A13.14,13.14,0,0,1,300,18Z" transform="translate(0 -5.42)"/><path class="cls-3" d="M329.75,6h5.77l9.1,24h-7.56l-.79-2.16H329L328.21,30h-7.56Zm4.5,16.56-1.62-4.21L331,22.55Z" transform="translate(0 -5.42)"/><path class="cls-3" d="M345.16,6h6.3l6.63,9.26V6h7.52V30h-6.34l-6.58-9.22V30h-7.53Z" transform="translate(0 -5.42)"/><path class="cls-3" d="M375.33,6h9.4a12.19,12.19,0,0,1,3.29.42,7.42,7.42,0,0,1,2.56,1.22,5.7,5.7,0,0,1,1.65,2,6.23,6.23,0,0,1,.6,2.82,6,6,0,0,1-.29,2,8.75,8.75,0,0,1-.61,1.35,4.87,4.87,0,0,1-.9,1.08,6.19,6.19,0,0,1,1.44,1.29,7.73,7.73,0,0,1,1,1.73,6.67,6.67,0,0,1,.45,2.56,7.74,7.74,0,0,1-.62,3.13A6.8,6.8,0,0,1,391.55,28a7.63,7.63,0,0,1-2.77,1.51,12,12,0,0,1-3.66.53h-9.79Zm10.08,7.31q0-1.65-1.8-1.65h-.86V15h.86C384.81,15,385.41,14.41,385.41,13.3Zm-1.8,11.05c1.82,0,2.74-.69,2.74-2.08s-.92-2.09-2.74-2.09h-.86v4.17Z" transform="translate(0 -5.42)"/><path class="cls-3" d="M395.53,6h14.14v6.3h-6.48V15h6.38v6h-6.38v2.78h6.74V30h-14.4Z" transform="translate(0 -5.42)"/><path class="cls-3" d="M19.17,49.19H33.32v6.3H26.84v2.67h6.37v6H26.84v2.78h6.73v6.3H19.17Z" transform="translate(0 -5.42)"/><path class="cls-3" d="M35.73,49.19h8V66.91h6.62v6.3H35.73Z" transform="translate(0 -5.42)"/><path class="cls-3" d="M51.06,61.22a12.3,12.3,0,0,1,1-4.9,12.59,12.59,0,0,1,6.72-6.71,12.6,12.6,0,0,1,9.79,0,12.61,12.61,0,0,1,6.71,6.71,12.6,12.6,0,0,1,0,9.79,12.59,12.59,0,0,1-6.71,6.72,12.6,12.6,0,0,1-9.79,0,12.56,12.56,0,0,1-6.72-6.72A12.21,12.21,0,0,1,51.06,61.22Zm7.56,0a5,5,0,0,0,.4,2,4.91,4.91,0,0,0,1.08,1.6,5,5,0,0,0,1.6,1.08,5,5,0,0,0,3.93,0,5,5,0,0,0,1.6-1.08,5.25,5.25,0,0,0,1.08-1.6,5.12,5.12,0,0,0,0-3.92,5.29,5.29,0,0,0-1.08-1.61,5.37,5.37,0,0,0-1.6-1.08,5.15,5.15,0,0,0-3.93,0,5.37,5.37,0,0,0-1.6,1.08,5.09,5.09,0,0,0-1.48,3.57Z" transform="translate(0 -5.42)"/><path class="cls-3" d="M78.24,49.19h6.3l6.63,9.26V49.19h7.52v24H92.36L85.77,64v9.22H78.24Z" transform="translate(0 -5.42)"/><path class="cls-3" d="M108.41,49.19h6.34L121,58.41l6.23-9.22h6.33v24h-7.66V64.57l-4.9,7.2-4.93-7.2v8.64h-7.67Z" transform="translate(0 -5.42)"/><path class="cls-3" d="M145.92,73.82a13.45,13.45,0,0,1-4.1-.58,8.36,8.36,0,0,1-3.13-1.73,7.5,7.5,0,0,1-2-2.91,11.15,11.15,0,0,1-.7-4.14V49.19h7.67V64.13a3.06,3.06,0,0,0,.52,1.93,2.09,2.09,0,0,0,1.74.67,2.11,2.11,0,0,0,1.75-.67,3.06,3.06,0,0,0,.52-1.93V49.19h7.71V64.46a11.14,11.14,0,0,1-.71,4.14,7.41,7.41,0,0,1-2,2.91A8.61,8.61,0,0,1,150,73.24,13.52,13.52,0,0,1,145.92,73.82Z" transform="translate(0 -5.42)"/><path class="cls-3" d="M157.66,65.75a12.42,12.42,0,0,0,1.65.4,12.84,12.84,0,0,0,1.64.29,16.3,16.3,0,0,0,1.86.11q1.65,0,1.65-1.23a1.37,1.37,0,0,0-.5-.95,13.24,13.24,0,0,0-1.28-1.08c-.52-.4-1.07-.84-1.66-1.32a12.25,12.25,0,0,1-1.65-1.65,8.8,8.8,0,0,1-1.28-2.11,6.64,6.64,0,0,1-.5-2.68,6.91,6.91,0,0,1,.61-3,6.09,6.09,0,0,1,1.69-2.16,7.74,7.74,0,0,1,2.54-1.31,10.49,10.49,0,0,1,3.11-.45,16.71,16.71,0,0,1,1.73.09l1.55.16,1.55.22v6.73l-.65-.07-.65-.08c-.24,0-.49,0-.76,0s-.32,0-.54,0a3,3,0,0,0-.61.09,1.13,1.13,0,0,0-.5.25.61.61,0,0,0-.22.5c0,.19.16.43.49.72s.72.63,1.19,1,1,.83,1.54,1.33a10.74,10.74,0,0,1,1.55,1.73,9.83,9.83,0,0,1,1.19,2.2,7.38,7.38,0,0,1,.49,2.73,8.5,8.5,0,0,1-.51,3,6.24,6.24,0,0,1-1.56,2.41,7.38,7.38,0,0,1-2.72,1.62,11.56,11.56,0,0,1-3.93.6,22.14,22.14,0,0,1-2.53-.13q-1.17-.12-2.07-.3a16.42,16.42,0,0,1-1.91-.44Z" transform="translate(0 -5.42)"/><path class="cls-3" d="M174.51,49.19h7.77v5.55l4.54-5.55h9.39l-8.46,11,8.9,13H187.4l-5.12-7.42v7.42h-7.77Z" transform="translate(0 -5.42)"/><path class="cls-3" d="M207.73,55.49h-4.42v-6.3h16.77v6.3h-4.43V73.21h-7.92Z" transform="translate(0 -5.42)"/><path class="cls-3" d="M220.8,61.22a12.3,12.3,0,0,1,1-4.9,12.61,12.61,0,0,1,6.71-6.71,12.62,12.62,0,0,1,9.8,0A12.61,12.61,0,0,1,245,56.32a12.6,12.6,0,0,1,0,9.79,12.59,12.59,0,0,1-6.71,6.72,12.62,12.62,0,0,1-9.8,0,12.59,12.59,0,0,1-6.71-6.72A12.21,12.21,0,0,1,220.8,61.22Zm7.56,0a4.81,4.81,0,0,0,.4,2,5.07,5.07,0,0,0,2.68,2.68,5,5,0,0,0,3.92,0A5.07,5.07,0,0,0,238,63.18a5,5,0,0,0,0-3.92A5,5,0,0,0,237,57.65a5.25,5.25,0,0,0-1.6-1.08,5.12,5.12,0,0,0-3.92,0,5.25,5.25,0,0,0-1.6,1.08,5,5,0,0,0-1.08,1.61A4.77,4.77,0,0,0,228.36,61.22Z" transform="translate(0 -5.42)"/><path class="cls-3" d="M248,49.19h6.34l6.26,9.22,6.23-9.22h6.33v24h-7.66V64.57l-4.9,7.2-4.93-7.2v8.64H248Z" transform="translate(0 -5.42)"/><path class="cls-3" d="M275.12,61.22a12.3,12.3,0,0,1,1-4.9,12.61,12.61,0,0,1,6.71-6.71,12.6,12.6,0,0,1,9.79,0,12.69,12.69,0,0,1,4,2.7,12.9,12.9,0,0,1,2.69,4,12.48,12.48,0,0,1,0,9.79,12.83,12.83,0,0,1-2.69,4,12.69,12.69,0,0,1-4,2.7,12.6,12.6,0,0,1-9.79,0,12.59,12.59,0,0,1-6.71-6.72A12.22,12.22,0,0,1,275.12,61.22Zm7.57,0a5,5,0,0,0,.39,2,5.07,5.07,0,0,0,1.08,1.6,5,5,0,0,0,1.6,1.08,5,5,0,0,0,3.93,0,5,5,0,0,0,1.6-1.08,5.07,5.07,0,0,0,1.08-1.6,5,5,0,0,0,0-3.92,5.12,5.12,0,0,0-1.08-1.61,5.37,5.37,0,0,0-1.6-1.08,5.15,5.15,0,0,0-3.93,0,5.37,5.37,0,0,0-1.6,1.08,5.12,5.12,0,0,0-1.08,1.61A4.93,4.93,0,0,0,282.69,61.22Z" transform="translate(0 -5.42)"/><path class="cls-3" d="M302.3,49.19h8.28a14.21,14.21,0,0,1,4.27.62,9.63,9.63,0,0,1,3.4,1.8,8.25,8.25,0,0,1,2.25,2.93,9.41,9.41,0,0,1,.81,4,8.38,8.38,0,0,1-.5,3.06,9.42,9.42,0,0,1-1.12,2.09,7.86,7.86,0,0,1-1.62,1.59l4.5,7.92h-9L310,67.12v6.09H302.3ZM310,61h.4a4.2,4.2,0,0,0,2.32-.61,2.69,2.69,0,0,0,0-4.1,4.2,4.2,0,0,0-2.32-.62H310Z" transform="translate(0 -5.42)"/><path class="cls-3" d="M323.29,49.19h8.28a14.21,14.21,0,0,1,4.27.62,9.63,9.63,0,0,1,3.4,1.8,8.25,8.25,0,0,1,2.25,2.93,9.41,9.41,0,0,1,.81,4,8.38,8.38,0,0,1-.5,3.06,9.42,9.42,0,0,1-1.12,2.09,7.86,7.86,0,0,1-1.62,1.59l4.5,7.92h-9L331,67.12v6.09h-7.67ZM331,61h.4a4.2,4.2,0,0,0,2.32-.61,2.69,2.69,0,0,0,0-4.1,4.2,4.2,0,0,0-2.32-.62H331Z" transform="translate(0 -5.42)"/><path class="cls-3" d="M343.74,61.22a12.3,12.3,0,0,1,1-4.9,12.61,12.61,0,0,1,6.71-6.71,12.62,12.62,0,0,1,9.8,0A12.61,12.61,0,0,1,368,56.32a12.6,12.6,0,0,1,0,9.79,12.59,12.59,0,0,1-6.71,6.72,12.62,12.62,0,0,1-9.8,0,12.59,12.59,0,0,1-6.71-6.72A12.21,12.21,0,0,1,343.74,61.22Zm7.56,0a4.81,4.81,0,0,0,.4,2,5.07,5.07,0,0,0,2.68,2.68,5,5,0,0,0,3.92,0A5.07,5.07,0,0,0,361,63.18a5,5,0,0,0,0-3.92,5,5,0,0,0-1.08-1.61,5.25,5.25,0,0,0-1.6-1.08,5.12,5.12,0,0,0-3.92,0,5.25,5.25,0,0,0-1.6,1.08,5,5,0,0,0-1.08,1.61A4.77,4.77,0,0,0,351.3,61.22Z" transform="translate(0 -5.42)"/><path class="cls-3" d="M368.94,49.19h8.14l2.77,8.39,2.77-8.39h5.26l2.77,8.39,2.77-8.39h8.14l-7.93,24h-6l-2.41-7.28-2.42,7.28h-6Z" transform="translate(0 -5.42)"/></svg>