<svg height='100px' width='100px'  fill="#000000" xmlns:dc="http://purl.org/dc/elements/1.1/" xmlns:cc="http://creativecommons.org/ns#" xmlns:rdf="http://www.w3.org/1999/02/22-rdf-syntax-ns#" xmlns:svg="http://www.w3.org/2000/svg" xmlns="http://www.w3.org/2000/svg" xmlns:sodipodi="http://sodipodi.sourceforge.net/DTD/sodipodi-0.dtd" xmlns:inkscape="http://www.inkscape.org/namespaces/inkscape" viewBox="0 0 48 48.000001" version="1.1" x="0px" y="0px"><g transform="translate(0,-1004.3622)"><path style="color:#000000;font-style:normal;font-variant:normal;font-weight:normal;font-stretch:normal;font-size:medium;line-height:normal;font-family:sans-serif;text-indent:0;text-align:start;text-decoration:none;text-decoration-line:none;text-decoration-style:solid;text-decoration-color:#000000;letter-spacing:normal;word-spacing:normal;text-transform:none;direction:ltr;block-progression:tb;writing-mode:lr-tb;baseline-shift:baseline;text-anchor:start;white-space:normal;clip-rule:nonzero;display:inline;overflow:visible;visibility:visible;opacity:1;isolation:auto;mix-blend-mode:normal;color-interpolation:sRGB;color-interpolation-filters:linearRGB;solid-color:#000000;solid-opacity:1;fill:#000000;fill-opacity:1;fill-rule:nonzero;stroke:none;stroke-width:0.99999994px;stroke-linecap:round;stroke-linejoin:round;stroke-miterlimit:4;stroke-dasharray:none;stroke-dashoffset:0;stroke-opacity:1;color-rendering:auto;image-rendering:auto;shape-rendering:auto;text-rendering:auto;enable-background:accumulate" d="M 24 0 C 10.751096 0 1.1e-005 10.7511 0 24 C 0 37.2489 10.751088 48 24 48 C 37.248911 48 48 37.2489 48 24 C 47.999989 10.7511 37.248903 0 24 0 z M 24 1 C 36.708464 1 46.999989 11.2916 47 24 C 47 36.7085 36.708471 47 24 47 C 11.291528 47 1 36.7085 1 24 C 1.000011 11.2916 11.291536 1 24 1 z M 24.876953 8.0761719 L 24.876953 8.078125 L 24.75 9.0761719 L 24.986328 9.1035156 L 25.558594 9.2304688 L 25.572266 9.2304688 L 25.642578 9.2539062 L 25.939453 8.2988281 L 25.828125 8.2636719 L 25.785156 8.2539062 L 25.171875 8.1191406 L 25.128906 8.109375 L 24.876953 8.0761719 z M 22.753906 8.0878906 L 22.449219 8.1269531 L 22.408203 8.1367188 L 21.794922 8.2734375 L 21.751953 8.2832031 L 21.691406 8.3027344 L 21.990234 9.2578125 L 22.044922 9.2382812 L 22.052734 9.2382812 L 22.601562 9.1171875 L 22.886719 9.0800781 L 22.753906 8.0878906 z M 19.748047 9.1425781 L 19.400391 9.3632812 L 19.367188 9.3828125 L 18.892578 9.7363281 L 19.492188 10.539062 L 19.931641 10.207031 L 19.943359 10.197266 L 20.277344 9.9902344 L 19.748047 9.1425781 z M 27.880859 9.171875 L 27.353516 10.009766 L 27.646484 10.191406 L 27.65625 10.201172 L 28.097656 10.529297 L 28.105469 10.539062 L 28.115234 10.548828 L 28.193359 10.441406 L 28.765625 9.7910156 L 28.742188 9.7714844 L 28.710938 9.7441406 L 28.216797 9.3789062 L 28.183594 9.3574219 L 27.880859 9.171875 z M 23.804688 10.003906 C 20.671833 10.003906 18.125 12.571203 18.125 15.720703 C 18.125002 17.451303 18.99417 18.619697 19.761719 19.779297 C 20.214747 20.463797 20.641147 21.154259 20.917969 22.005859 L 20.544922 21.824219 L 20.541016 21.824219 L 20.240234 21.642578 L 19.722656 22.498047 L 20.027344 22.681641 L 20.066406 22.701172 L 20.644531 22.986328 L 20.996094 22.267578 C 21.137343 22.779278 21.225819 23.349972 21.230469 24.013672 A 0.50004997 0.50004997 0 0 0 21.232422 24.150391 L 21.232422 26.580078 A 0.50004997 0.50004997 0 0 0 21.242188 26.677734 A 0.50004997 0.50004997 0 0 0 21.349609 26.898438 A 0.50004997 0.50004997 0 0 0 21.732422 27.076172 L 23.337891 27.076172 L 23.337891 31.603516 C 22.465185 29.761816 20.602963 28.5016 18.466797 28.5 A 0.50004997 0.50004997 0 0 0 18.464844 28.5 C 17.826446 28.5 17.193908 28.618897 16.595703 28.841797 A 0.50004997 0.50004997 0 0 0 16.273438 29.365234 C 16.583101 32.091834 18.898463 34.160109 21.642578 34.162109 A 0.50004997 0.50004997 0 0 0 21.644531 34.162109 C 22.221869 34.162109 22.791189 34.054194 23.337891 33.871094 L 23.337891 40 L 24.337891 40 L 24.337891 36.210938 C 24.879547 36.392137 25.443535 36.4981 26.015625 36.5 A 0.50004997 0.50004997 0 0 0 26.017578 36.5 C 28.735939 36.5 31.029256 34.451 31.335938 31.75 A 0.50004997 0.50004997 0 0 0 31.013672 31.224609 C 30.421086 31.003809 29.794511 30.888919 29.162109 30.886719 A 0.50004997 0.50004997 0 0 0 29.158203 30.886719 C 27.044455 30.886719 25.202937 32.133478 24.337891 33.955078 L 24.337891 27.076172 L 25.876953 27.076172 A 0.50004997 0.50004997 0 0 0 25.927734 27.076172 A 0.50004997 0.50004997 0 0 0 26.025391 27.056641 A 0.50004997 0.50004997 0 0 0 26.376953 26.580078 L 26.376953 24.148438 A 0.50004997 0.50004997 0 0 0 26.378906 24.007812 C 26.384206 23.329512 26.475627 22.746762 26.623047 22.226562 L 26.992188 22.972656 L 27.570312 22.6875 L 27.609375 22.666016 L 27.867188 22.507812 L 27.347656 21.654297 L 27.107422 21.800781 L 26.691406 22.005859 C 26.968228 21.154259 27.394627 20.463697 27.847656 19.779297 C 28.615208 18.619697 29.484375 17.451303 29.484375 15.720703 C 29.484275 12.571203 26.937533 10.003906 23.804688 10.003906 z M 23.804688 11.003906 C 26.39321 11.003906 28.484374 13.107803 28.484375 15.720703 C 28.484375 17.120303 27.800044 18.040516 27.013672 19.228516 C 26.297453 20.310716 25.602299 21.675959 25.470703 23.568359 L 24.304688 23.568359 L 24.304688 20.380859 A 0.50004997 0.50004997 0 1 0 23.304688 20.380859 L 23.304688 23.568359 L 22.138672 23.568359 C 22.007077 21.675959 21.311918 20.310716 20.595703 19.228516 C 19.809334 18.040516 19.125002 17.120303 19.125 15.720703 C 19.125 13.107803 21.216152 11.003906 23.804688 11.003906 z M 17.414062 11.308594 L 17.414062 11.310547 L 17.144531 11.714844 L 17.121094 11.746094 L 16.871094 12.201172 L 17.744141 12.683594 L 17.982422 12.253906 L 18.244141 11.871094 L 17.414062 11.308594 z M 30.207031 11.330078 L 29.380859 11.892578 L 29.607422 12.228516 L 29.878906 12.708984 L 30.75 12.21875 L 30.472656 11.722656 L 30.449219 11.6875 L 30.207031 11.330078 z M 16.148438 14.197266 L 16.144531 14.208984 L 16.134766 14.251953 L 16.03125 14.888672 L 16.025391 14.931641 L 16 15.271484 L 16.998047 15.345703 L 17.023438 15.017578 L 17.113281 14.455078 L 17.115234 14.443359 L 17.117188 14.443359 L 17.121094 14.417969 L 16.796875 14.361328 L 16.148438 14.197266 z M 31.474609 14.259766 L 30.488281 14.425781 L 30.583984 14.998047 L 30.613281 15.373047 L 31.611328 15.292969 L 31.580078 14.900391 L 31.574219 14.857422 L 31.474609 14.259766 z M 17.119141 17.201172 L 16.136719 17.388672 L 16.166016 17.548828 L 16.175781 17.589844 L 16.337891 18.183594 L 16.351562 18.224609 L 16.427734 18.431641 L 17.367188 18.087891 L 17.292969 17.884766 L 17.291016 17.873047 L 17.146484 17.34375 L 17.119141 17.201172 z M 30.484375 17.232422 L 30.466797 17.326172 L 30.318359 17.880859 L 30.314453 17.894531 L 30.234375 18.111328 L 31.173828 18.453125 L 31.267578 18.195312 L 31.279297 18.154297 L 31.441406 17.560547 L 31.449219 17.519531 L 31.46875 17.410156 L 30.484375 17.232422 z M 18.222656 19.746094 L 17.398438 20.314453 L 17.529297 20.505859 L 17.554688 20.539062 L 17.945312 21.015625 L 17.974609 21.048828 L 18.078125 21.15625 L 18.796875 20.458984 L 18.701172 20.359375 L 18.691406 20.347656 L 18.34375 19.921875 L 18.222656 19.746094 z M 29.373047 19.771484 L 29.279297 19.90625 L 29.271484 19.917969 L 28.921875 20.345703 L 28.794922 20.478516 L 29.515625 21.171875 L 29.65625 21.025391 L 29.683594 20.994141 L 30.072266 20.515625 L 30.097656 20.484375 L 30.199219 20.333984 L 29.373047 19.771484 z M 22.232422 24.566406 L 23.712891 24.566406 A 0.50004997 0.50004997 0 0 0 23.886719 24.566406 L 25.376953 24.566406 L 25.376953 26.078125 L 22.232422 26.078125 L 22.232422 24.566406 z M 18.466797 29.501953 L 18.46875 29.501953 C 20.552231 29.501953 22.263216 30.978503 22.707031 32.970703 C 22.356013 33.060703 22.006097 33.162762 21.642578 33.164062 C 19.557615 33.164062 17.845648 31.689012 17.402344 29.695312 C 17.75336 29.605313 18.103274 29.503453 18.466797 29.501953 z M 29.158203 31.888672 L 29.160156 31.888672 C 29.517703 31.888672 29.861684 31.992078 30.207031 32.080078 C 29.76642 34.046578 28.077228 35.499553 26.019531 35.501953 C 25.661365 35.501953 25.31664 35.4006 24.970703 35.3125 C 25.411313 33.346 27.100504 31.891272 29.158203 31.888672 z " transform="translate(0,1004.3622)"></path></g></svg>