<svg height='100px' width='100px'  fill="#000000" xmlns="http://www.w3.org/2000/svg" viewBox="0 0 64 64" x="0px" y="0px"><title>1</title><g data-name="Layer 27"><path d="M34,46.13c-.4.66-1,1.56-2,1.56s-1.55-.9-2-1.56a5.59,5.59,0,0,0-.37-.56h0v5.71l1.72-1.43a1,1,0,0,1,1.28,0l1.72,1.43V45.57h0A5.55,5.55,0,0,0,34,46.13Z"></path><path d="M35.74,38.42a3.18,3.18,0,0,1,.05-1.95c0-.11.06-.25.09-.39l-.38.09a3.17,3.17,0,0,1-1.95.05,3.05,3.05,0,0,1-1.3-1.39L32,34.45l-.25.39a3.05,3.05,0,0,1-1.3,1.39,3.16,3.16,0,0,1-1.95-.05l-.39-.09c0,.13.06.28.09.39a3.18,3.18,0,0,1,.05,1.95,3,3,0,0,1-1.39,1.3l-.39.25.39.25a3.05,3.05,0,0,1,1.39,1.3,3.18,3.18,0,0,1-.05,1.95c0,.11-.06.25-.09.38l.39-.09a5.29,5.29,0,0,1,1.21-.19,1.91,1.91,0,0,1,.74.14,3.05,3.05,0,0,1,1.3,1.39l.25.39.25-.39a3.05,3.05,0,0,1,1.3-1.39,3.2,3.2,0,0,1,1.95.05l.38.09c0-.13-.06-.28-.09-.39a3.18,3.18,0,0,1-.05-1.95,3.05,3.05,0,0,1,1.39-1.3l.39-.25-.39-.25A3.06,3.06,0,0,1,35.74,38.42Z"></path><path d="M55.67,57H44.86l3.41-28.17a1,1,0,0,0-1-1.12H43.18l1-14.13a2,2,0,0,1,1.49,2.11l-.58,7.85A1,1,0,0,0,46,24.61h.07a1,1,0,0,0,1-.93l.58-7.85a4,4,0,0,0-3.33-4.25L44.48,10a3,3,0,0,0-.63-2.1,2.73,2.73,0,0,0-1-.79l.07-1a1,1,0,1,0-2-.15l-.07,1a3,3,0,0,0-2,2.64L37.53,27.71H35.12l-.56-7a2.88,2.88,0,0,0-1.07-2l-.27-3.42a1,1,0,0,0,0-.13,1,1,0,0,0,0-.1L30.75,7.67a1,1,0,0,0-1-.69,1,1,0,0,0-.91.84l-1.21,7.7a1,1,0,0,0,0,.1.94.94,0,0,0,0,.13l.27,3.41-.06.06a2.85,2.85,0,0,0-.68,2.09l.51,6.39H26.52L25,22.25A3.43,3.43,0,0,0,23.1,20l-.8-2.91a4.64,4.64,0,0,0,.44-.63,4.58,4.58,0,0,0,.43-3.5L21.26,6A1,1,0,0,0,20,5.35a8.22,8.22,0,0,0-5.74,10.11,4.58,4.58,0,0,0,2.17,2.78,4.65,4.65,0,0,0,.7.32l.8,2.9a3.45,3.45,0,0,0-.51,2.88l.93,3.37H16.72a1,1,0,0,0-1,1.12L19.14,57H8.33a1,1,0,1,0,0,2H55.67a1,1,0,0,0,0-2ZM40.59,13.27l1.63.12L41.17,27.71H39.53Zm-10.78,5-.13-1.64,1.63-.13.13,1.63Zm-.68,2.93a.87.87,0,0,1,.81-.94l1.7-.14a.89.89,0,0,1,.95.8l.54,6.83H29.65Zm-8.54-2.72L21,19.81l-.21,0-.88.24-.2.08-.37-1.35a3.89,3.89,0,0,0,1.28-.37Zm-1.2,5.37a1.47,1.47,0,0,1,1-1.8l.88-.24a1.46,1.46,0,0,1,1.8,1l1.36,4.93h-4Zm18.78,18.1a5.49,5.49,0,0,0-.56.37,5.37,5.37,0,0,0,.14.7,2.47,2.47,0,0,1-.28,2.43,1.61,1.61,0,0,1-1.1.45v7.53a1,1,0,0,1-1.64.77L32,51.92l-2.72,2.27a1,1,0,0,1-1.64-.77V45.88a1.61,1.61,0,0,1-1.1-.45A2.47,2.47,0,0,1,26.26,43a5.41,5.41,0,0,0,.14-.7,5.59,5.59,0,0,0-.56-.37c-.66-.4-1.56-.95-1.56-2s.9-1.55,1.56-2a5.5,5.5,0,0,0,.56-.37,5.39,5.39,0,0,0-.14-.7,2.47,2.47,0,0,1,.28-2.43A2.47,2.47,0,0,1,29,34.23a5.33,5.33,0,0,0,.7.14A5.59,5.59,0,0,0,30,33.8c.4-.66.95-1.56,2-1.56s1.55.9,2,1.56a5.56,5.56,0,0,0,.37.56,5.29,5.29,0,0,0,.7-.14,2.47,2.47,0,0,1,2.43.28,2.47,2.47,0,0,1,.28,2.43,5.38,5.38,0,0,0-.14.7,5.49,5.49,0,0,0,.56.38c.66.4,1.56.95,1.56,2S38.83,41.52,38.17,41.92Z"></path></g></svg>