<svg height='100px' width='100px'  fill="#000000" xmlns="http://www.w3.org/2000/svg" xmlns:xlink="http://www.w3.org/1999/xlink" version="1.1" x="0px" y="0px" viewBox="0 0 128 128" style="enable-background:new 0 0 128 128;" xml:space="preserve"><g><path d="M15.9299316,54.0665283L15.90979,54.064209c0,0,7.2041626,7.5303345,7.2041626,17.5905151   c0,8.4169922-0.699646,28.8813477-0.9283447,35.3452759h9.9480591l1.4561768-13.8603516   c0.0599365-0.5706177,0.5411377-1.0039062,1.1149292-1.0039062c0.6049194,0,1.100769,0.4799194,1.1204224,1.0845337L36.274292,107   h9.4086914c-0.013855-7.6627197-0.4782715-23.3040161-0.8324585-33.2339478   c0.015564-1.3203735,0.2492676-2.6362915,0.8084717-3.8325195c1.7914429-3.8324585,1.4906616-7.8651733,1.0175781-10.4440918   c-0.3574219-1.9487305-0.008667-3.9564819,1.0198975-5.6497803l1.5403442-2.5357056L49.225708,51.31427   c5.2235107-6.6239624,6.2158203-15.7540283,6.3308105-20.7435303c0.0457764-1.9865112-1.5688477-3.614624-3.5559082-3.614624   c-1.9083252,0-3.4807129,1.5006104-3.5519409,3.4076538c-0.253418,6.7796021-2.5076294,21.3118286-17.178772,21.3118286   s-16.925415-14.5322266-17.178772-21.3118286c-0.0712891-1.9070435-1.6436768-3.4076538-3.552002-3.4076538   c-1.9869995,0-3.6016846,1.6281128-3.5559082,3.614624C7.1152344,36.2992554,8.4083862,47.4816284,15.9299316,54.0665283z"></path><path d="M22.4342651,33.8592529C21.5297852,35.362915,21,37.1174927,21,39c0,5.5228271,4.4771729,10,10,10s10-4.4771729,10-10   s-4.4771729-10-10-10c-1.046875,0-2.055603,0.1622925-3.0039673,0.4606934C27.9743652,26.9940186,25.9718018,25,23.5,25   c-2.4852905,0-4.5,2.0147095-4.5,4.5C19,31.6162109,20.4660645,33.3787231,22.4342651,33.8592529z M31,47   c-3.4918213,0-6.4605103-2.2524414-7.5495605-5.3778076c6.8892212-0.2036133,9.2962646-4.2264404,10.1160278-7.4050903   c1.1151123,0.5845947,2.6481323,1.1322632,4.6265259,1.3044434C38.7046509,36.5750732,39,37.7522583,39,39   C39,43.4111938,35.4111938,47,31,47z"></path><path d="M67.0823975,68.1218872c0.0074463,0,0.0140381-0.0012207,0.0214844-0.0012207C68.9333496,70.4772949,71.7856445,72,75,72   c5.5228271,0,10-4.4771729,10-10s-4.4771729-10-10-10c-2.4726562,0-4.7314453,0.9020386-6.4769287,2.388916l-0.0130615,0.003479   l-0.1038818,0.1029053l-0.8336182,0.8258667l-6.1916504,6.1340942c-0.6166992,0.637207-0.7414551,1.5993042-0.307373,2.3724976   C62.0152588,65.5048828,63.9814453,68.1218872,67.0823975,68.1218872z M75,70c-2.1804199,0-4.157959-0.8790283-5.6022949-2.298645   c2.8432617-1.118042,4.1157227-4.2397461,5.5070801-6.463501c1.6101074-2.5731201,4.6650391-3.7654419,6.3243408-4.2458496   C82.3344727,58.3641968,83,60.1049194,83,62C83,66.4111938,79.4112549,70,75,70z"></path><path d="M95.8945312,57.2079468c-2.0524902-0.8084717-4.3726807,0.1903687-5.1960449,2.2367554l-2.7724609,6.890564   C85.8195801,71.5704346,80.7429199,75,75.0998535,75h-4.1750488c-3.5738525,0-6.8760986,1.9072876-8.6618652,5.0029907   L50.8968506,99.7052002c-0.9742432,1.6886597-0.3780518,3.8479004,1.324585,4.7975464   c1.5410156,0.8595581,3.480957,0.4352417,4.5224609-0.9890137L66.822998,89.7305298L64.1585693,107H65   c9.3868408,0,17.9627686-3.5199585,24.493042-9.3010864c0.1361084-7.5266113-1.1375732-11.9795532-1.1375732-11.9795532   l9.7680664-23.2192383C98.9973145,60.4230957,97.9909668,58.0338745,95.8945312,57.2079468z"></path><path d="M121.6442871,38.1157837l-6.6707764-13.5339355c-0.2854004-11.3814087-8.9827881-18.3030396-9.3592529-18.5960083   c-0.3613281-0.28125-0.8671875-0.28125-1.2285156,0c-0.3664551,0.2851562-8.6132812,6.8522949-9.3167725,17.6970825   l-7.1138916,14.4328613C87.3000488,39.4448853,88.267334,41,89.7490234,41H95v2c0,0.5522461,0.4472656,1,1,1h4.7943115   l-0.9793701,2.6537476C99.5739746,47.3067017,100.0571289,48,100.7531738,48H102h1h1v22   c0,12.3069458-5.7062988,23.2755127-14.6109619,30.4232178C82.7092285,105.7851562,74.2321777,109,65,109h-1.1499023H45.6740112   h-10.432373h-3.3181152h-9.8095703H10c-1.1045532,0-2,0.8953857-2,2v8.079895c0,1.1102295,0.9019165,2.000061,1.9979858,2.000061   c0.0375366,0,0.0753174-0.0010376,0.1132812-0.0031738l54.6890259-3.0474854   c23.4038086-1.2996216,41.6118164-20.8363647,41.2625732-44.2736206L106,69.5362549V48h1h1h1.2468262   c0.6960449,0,1.1791992-0.6932983,0.9382324-1.3462524L109.2056885,44H114c0.5527344,0,1-0.4477539,1-1v-2h4.8503418   C121.3320312,41,122.2993164,39.4448853,121.6442871,38.1157837z M106,42v-8c0-0.5522461-0.4472656-1-1-1s-1,0.4477539-1,1v8h-7   V31.0057373v-5.8621826c0-1.5736084,0.1921387-3.0567017,0.5058594-4.4520874   C98.7468262,15.1724854,102.0095215,11.1170654,104,9.069458V16c0,0.5522461,0.4472656,1,1,1s1-0.4477539,1-1V9.06427   c1.763916,1.809082,4.5311279,5.1898193,6.0030518,9.7843628C112.6119385,20.7493286,113,22.8550415,113,25.1435547v14.0309448V42   H106z"></path><path d="M105,20c-2.7614746,0-5,2.2385864-5,5s2.2385254,5,5,5s5-2.2385864,5-5S107.7614746,20,105,20z M105,28   c-1.6541748,0-3-1.3457642-3-3s1.3458252-3,3-3s3,1.3457642,3,3S106.6541748,28,105,28z"></path></g></svg>