<svg height='100px' width='100px'  fill="#000000" xmlns="http://www.w3.org/2000/svg" xmlns:xlink="http://www.w3.org/1999/xlink" xml:space="preserve" version="1.1" style="shape-rendering:geometricPrecision;text-rendering:geometricPrecision;image-rendering:optimizeQuality;" viewBox="0 0 60000 60000" x="0px" y="0px" fill-rule="evenodd" clip-rule="evenodd"><defs><style type="text/css">
   
    .fil0 {fill:#000000;fill-rule:nonzero}
   
  </style></defs><g><path class="fil0" d="M54323 16615c219,22 379,217 358,436 -22,219 -217,379 -436,358 -143,-15 -919,-103 -2077,-234 -4179,-474 -13234,-1501 -13465,-1485 -915,64 -1536,374 -2236,724 -303,151 -620,309 -980,460 -1278,537 -2490,801 -3704,816 -1211,15 -2412,-219 -3673,-678 -431,-157 -900,-320 -1387,-457 -471,-132 -963,-240 -1460,-295l-358 0c-435,0 -837,-163 -1142,-629 -253,-388 -427,-1002 -465,-1944 -2,-59 8,-115 29,-166 -251,-91 -483,-249 -682,-499 -313,-393 -527,-1016 -575,-1971 -2,-39 2,-77 11,-113 -328,-81 -631,-233 -892,-482 -413,-394 -697,-1018 -765,-1974l-3935 0c-25,0 -49,-2 -73,-7 -517,-62 -920,-267 -1215,-556 -344,-336 -533,-779 -579,-1236l-5 -52c-38,-502 98,-1023 396,-1435 305,-423 775,-730 1394,-792l53 -5c10,-1 20,-1 30,-1l0 0 10745 0c335,-594 1166,-1689 1735,-2439 200,-264 366,-483 469,-625l9 -13c311,-398 686,-650 1073,-792 464,-171 944,-183 1351,-102l0 0c16,3 31,7 47,12 673,219 1783,731 2807,1302 872,486 1690,1020 2141,1464 505,497 871,1198 1242,1909 397,760 800,1534 1353,1980 330,267 6237,-335 10374,-756 2121,-216 3789,-386 4109,-361 220,16 385,208 369,428 -16,220 -208,385 -428,369 -259,-20 -1894,147 -3972,358 -4271,435 -10368,1056 -10952,584 -681,-549 -1124,-1399 -1559,-2233 -341,-654 -677,-1298 -1095,-1709 -397,-391 -1153,-881 -1969,-1336 -966,-539 -2006,-1020 -2640,-1231 -275,-51 -595,-41 -902,72 -257,94 -507,262 -715,527 -92,128 -267,357 -476,633 -634,835 -1611,2122 -1735,2461 -3,12 -7,23 -11,35 -31,112 -31,227 -5,338 40,176 140,344 277,485 140,145 316,257 502,315 143,45 290,57 428,25 295,-68 678,-382 1036,-786l8 -10c9,-11 19,-22 29,-32 44,-51 88,-103 131,-156 444,-547 796,-1174 844,-1576 26,-219 225,-376 444,-350 219,26 376,225 350,444 -37,312 -191,702 -415,1100 268,-5 520,47 766,139 308,115 595,290 889,486 183,123 232,370 109,553 -123,183 -370,232 -553,109 -252,-168 -490,-315 -724,-402 -207,-77 -418,-110 -648,-70 -119,21 -270,67 -403,130 -93,45 -173,94 -214,142 -6,7 -12,13 -18,20 -463,518 -994,931 -1455,1036 -283,65 -572,44 -843,-41 -313,-98 -606,-283 -836,-521 -235,-242 -409,-542 -483,-863 -19,-84 -32,-168 -37,-254l-10542 0c-6,0 -6,0 -11,1 -369,37 -646,217 -825,464 -186,257 -271,588 -246,910 2,32 1,23 2,33 28,279 140,546 342,743 175,171 422,294 747,334l10978 0c221,0 400,179 400,400 0,221 -179,400 -400,400l-6257 0c57,703 246,1141 514,1396 262,250 624,337 1020,337l4657 0c397,0 759,-88 1020,-337 278,-265 471,-727 520,-1477 14,-220 203,-387 423,-373 220,14 387,203 373,423 -64,974 -349,1607 -767,2005 -434,414 -985,559 -1570,559l-4549 0c38,768 188,1240 403,1510 175,220 412,297 671,297l3537 0c208,0 399,-47 551,-172 169,-139 311,-383 408,-772 53,-214 269,-345 483,-292 214,53 345,269 292,483 -141,571 -379,953 -677,1197 -315,259 -678,356 -1057,356l-3386 0c1,11 2,23 3,34 32,782 157,1262 337,1538 129,198 295,267 473,267l2902 0c141,0 271,-40 377,-145 139,-140 257,-386 337,-782 43,-216 253,-356 469,-313 216,43 356,253 313,469 -115,565 -309,944 -553,1188 -163,164 -342,267 -532,325 56,20 110,40 165,60 1173,428 2284,645 3392,631 1105,-14 2219,-259 3404,-757 341,-143 643,-294 933,-439 775,-386 1462,-729 2540,-805 301,-21 9404,1011 13605,1488 1207,137 2018,229 2067,234zm127 42035c219,22 379,217 358,436 -22,219 -217,379 -436,358 -136,-14 -1473,-190 -3280,-429 -4115,-543 -10684,-1410 -10886,-1396 -915,64 -1536,374 -2236,724 -303,151 -620,309 -980,460 -1278,537 -2490,801 -3704,816 -1211,15 -2412,-219 -3673,-678 -431,-157 -900,-320 -1387,-457 -471,-132 -963,-240 -1460,-295l-358 0c-435,0 -837,-163 -1142,-629 -253,-388 -427,-1002 -465,-1944 -2,-59 8,-115 29,-166 -251,-91 -483,-249 -682,-499 -313,-393 -527,-1016 -575,-1971 -2,-39 2,-77 11,-113 -328,-81 -631,-233 -892,-482 -413,-394 -697,-1018 -765,-1974l-3935 0c-25,0 -49,-2 -73,-7 -517,-62 -920,-267 -1215,-556 -344,-336 -533,-779 -579,-1236l-5 -52c-38,-502 98,-1023 396,-1435 305,-423 775,-730 1394,-792l53 -5c10,-1 20,-1 30,-1l0 0 10745 0c335,-594 1166,-1689 1735,-2439 200,-264 366,-483 469,-625l9 -13c311,-398 686,-650 1073,-792 464,-171 944,-183 1351,-102l0 0c16,3 31,7 47,12 673,219 1783,731 2807,1302 872,486 1690,1020 2141,1464 505,497 871,1198 1242,1909 397,760 800,1534 1353,1980 344,278 5890,-140 9648,-423 1804,-136 3206,-242 3513,-218 220,16 385,208 369,428 -16,220 -208,385 -428,369 -248,-19 -1624,85 -3394,218 -3884,293 -9617,724 -10207,248 -681,-549 -1124,-1399 -1559,-2233 -341,-654 -677,-1298 -1095,-1709 -397,-391 -1153,-881 -1969,-1336 -966,-539 -2006,-1020 -2640,-1231 -275,-51 -595,-41 -902,72 -257,94 -507,262 -715,527 -92,128 -267,357 -476,633 -634,835 -1611,2122 -1735,2461 -3,12 -7,23 -11,35 -31,112 -31,227 -5,338 40,176 140,344 277,485 140,145 316,257 502,315 143,45 290,57 428,25 295,-68 678,-382 1036,-786l8 -10c9,-11 19,-22 29,-32 44,-51 88,-103 131,-156 444,-547 796,-1174 844,-1576 26,-219 225,-376 444,-350 219,26 376,225 350,444 -37,312 -191,702 -415,1100 268,-5 520,47 766,139 308,115 595,290 889,486 183,123 232,370 109,553 -123,183 -370,232 -553,109 -252,-168 -490,-315 -724,-402 -207,-77 -418,-110 -648,-70 -119,21 -270,67 -403,130 -93,45 -173,94 -214,142 -6,7 -12,13 -18,20 -463,518 -994,931 -1455,1036 -283,65 -572,44 -843,-41 -313,-98 -606,-283 -836,-521 -235,-242 -409,-542 -483,-863 -19,-84 -32,-168 -37,-254l-10542 0c-6,0 -6,0 -11,1 -369,37 -647,217 -825,464 -186,257 -271,588 -246,910 2,32 1,23 2,33 28,279 140,546 342,743 175,171 422,294 747,334l10978 0c221,0 400,179 400,400 0,221 -179,400 -400,400l-6257 0c57,703 246,1141 514,1396 262,250 624,337 1020,337l4657 0c397,0 759,-88 1020,-337 278,-265 471,-727 520,-1477 14,-220 203,-387 423,-373 220,14 387,203 373,423 -64,974 -349,1607 -767,2005 -434,414 -985,559 -1570,559l-4549 0c38,768 188,1240 403,1510 175,220 412,297 671,297l3537 0c208,0 399,-47 551,-172 169,-139 311,-383 408,-772 53,-214 269,-345 483,-292 214,53 345,269 292,483 -141,572 -379,953 -677,1197 -315,259 -678,356 -1057,356l-3386 0c1,11 2,23 3,34 32,782 157,1262 337,1538 129,198 295,267 473,267l2902 0c141,0 271,-40 377,-145 139,-140 257,-386 337,-782 43,-216 253,-356 469,-313 216,43 356,253 313,469 -115,565 -309,944 -553,1188 -163,164 -342,267 -532,325 56,20 110,40 165,60 1173,428 2284,645 3392,631 1105,-14 2219,-259 3404,-757 341,-143 643,-294 933,-439 775,-386 1462,-729 2540,-805 273,-19 6894,855 11042,1402 1796,237 3125,412 3255,426zm-21219 -8894c24,-219 221,-377 441,-353 219,24 377,221 353,441 -153,1367 -20,2679 588,3659 500,806 1338,1397 2628,1619 217,37 364,243 327,461 -37,217 -243,364 -461,327 -1540,-264 -2554,-992 -3172,-1987 -713,-1149 -875,-2637 -704,-4165zm20246 -11489c219,22 379,217 358,436 -22,219 -217,379 -436,358 -291,-30 -10692,-1091 -17758,-1795 -3562,-355 -6263,-619 -6356,-612 -915,64 -1536,374 -2236,724 -303,151 -620,309 -980,460 -1278,537 -2490,801 -3704,816 -1211,15 -2412,-219 -3673,-678 -431,-157 -900,-320 -1387,-457 -471,-132 -963,-240 -1460,-295l-358 0c-435,0 -837,-163 -1142,-629 -253,-388 -427,-1002 -465,-1944 -2,-59 8,-115 29,-166 -251,-91 -483,-249 -682,-499 -313,-393 -527,-1016 -575,-1971 -2,-39 2,-77 11,-113 -328,-81 -631,-233 -892,-482 -413,-394 -697,-1018 -765,-1974l-3935 0c-25,0 -49,-2 -73,-7 -517,-62 -920,-267 -1215,-556 -344,-336 -533,-779 -579,-1236l-5 -52c-38,-502 98,-1023 396,-1435 305,-423 775,-730 1394,-792l53 -5c10,-1 20,-1 30,-1l0 0 10745 0c335,-594 1166,-1689 1735,-2439 200,-264 366,-483 469,-625l9 -13c311,-398 686,-650 1073,-792 464,-171 944,-183 1351,-102l0 0c16,3 31,7 47,12 673,219 1783,731 2807,1302 872,486 1690,1020 2141,1464 505,497 871,1198 1242,1909 397,760 800,1534 1353,1980 353,285 11099,-376 18000,-801 3145,-194 5503,-339 5797,-316 220,16 385,208 369,428 -16,220 -208,385 -428,369 -246,-19 -2579,125 -5690,316 -7021,432 -17954,1105 -18547,626 -681,-549 -1124,-1399 -1559,-2233 -341,-654 -677,-1298 -1095,-1709 -397,-391 -1153,-881 -1969,-1336 -966,-539 -2006,-1020 -2640,-1231 -275,-51 -595,-41 -902,72 -257,94 -507,262 -715,527 -92,128 -267,357 -476,633 -634,835 -1611,2122 -1735,2461 -3,12 -7,23 -11,35 -31,112 -31,227 -5,338 40,176 140,344 277,485 140,145 316,257 502,315 143,45 290,57 428,25 295,-68 678,-382 1036,-786l8 -10c9,-11 19,-22 29,-32 44,-51 88,-103 131,-156 444,-547 796,-1174 844,-1576 26,-219 225,-376 444,-350 219,26 376,225 350,444 -37,312 -191,702 -415,1100 268,-5 520,47 766,139 308,115 595,290 889,486 183,123 232,370 109,553 -123,183 -370,232 -553,109 -252,-168 -490,-315 -724,-402 -207,-77 -418,-110 -648,-70 -119,21 -270,67 -403,130 -93,45 -173,94 -214,142 -6,7 -12,13 -18,20 -463,518 -994,931 -1455,1036 -283,65 -572,44 -843,-41 -313,-98 -606,-283 -836,-521 -235,-242 -409,-542 -483,-863 -19,-84 -32,-168 -37,-254l-10542 0c-6,0 -6,0 -11,1 -369,37 -647,217 -825,464 -186,257 -271,588 -246,910 2,32 1,23 2,33 28,279 140,546 342,743 175,171 422,294 747,334l10978 0c221,0 400,179 400,400 0,221 -179,400 -400,400l-6257 0c57,703 246,1141 514,1396 262,250 624,337 1020,337l4657 0c397,0 759,-88 1020,-337 278,-265 471,-727 520,-1477 14,-220 203,-387 423,-373 220,14 387,203 373,423 -64,974 -349,1607 -767,2005 -434,414 -985,559 -1570,559l-4549 0c38,768 188,1240 403,1510 175,220 412,297 671,297l3537 0c208,0 399,-47 551,-172 169,-139 311,-383 408,-772 53,-214 269,-345 483,-292 214,53 345,269 292,483 -141,571 -379,953 -677,1197 -315,259 -678,356 -1057,356l-3386 0c1,11 2,23 3,34 32,782 157,1262 337,1538 129,198 295,267 473,267l2902 0c141,0 271,-40 377,-145 139,-140 257,-386 337,-782 43,-216 253,-356 469,-313 216,43 356,253 313,469 -115,565 -309,944 -553,1188 -163,164 -342,267 -532,325 56,20 110,40 165,60 1173,428 2284,645 3392,631 1105,-14 2219,-259 3404,-757 341,-143 643,-294 933,-439 774,-386 1462,-729 2540,-805 137,-10 2884,256 6488,615 7065,704 17467,1765 17758,1795zm-31167 -9476c24,-219 221,-377 441,-353 219,24 377,221 353,441 -153,1367 -20,2679 588,3659 500,806 1338,1397 2628,1619 217,37 364,243 327,461 -37,217 -243,364 -461,327 -1540,-264 -2554,-992 -3172,-1987 -713,-1149 -875,-2637 -704,-4165zm9419 -20964c24,-219 221,-377 441,-353 219,24 377,221 353,441 -153,1367 -20,2679 588,3659 500,806 1338,1397 2628,1619 217,37 364,243 327,461 -37,217 -243,364 -461,327 -1540,-264 -2554,-992 -3172,-1987 -713,-1149 -875,-2637 -704,-4165z"></path></g></svg>