<svg height='100px' width='100px'  fill="#000000" xmlns="http://www.w3.org/2000/svg" xmlns:xlink="http://www.w3.org/1999/xlink" version="1.1" x="0px" y="0px" viewBox="0 0 70.3 72.4" style="enable-background:new 0 0 70.3 72.4;" xml:space="preserve"><path d="M14.2,27.1c-0.4-0.1-0.8,0-1,0.3c-1,1.1-2.1,2.4-2.9,3.2C10,31,10,31.5,10.2,31.9c0.9,1.4,2.2,2.9,3.8,4.6  c0.2,0.2,0.5,0.3,0.7,0.3c0.1,0,0.3,0,0.4-0.1c0.4-0.2,0.6-0.6,0.6-1L14.9,28C14.9,27.6,14.6,27.3,14.2,27.1z M12.3,31.4  c0.3-0.3,0.6-0.6,0.9-1l0.3,2.4C13.1,32.3,12.7,31.8,12.3,31.4z M27.8,36.8c0.3,0,0.5-0.1,0.7-0.3c1.6-1.7,2.9-3.2,3.8-4.6  c0.3-0.4,0.2-0.9-0.1-1.2c-0.7-0.8-1.9-2.2-2.9-3.2c-0.3-0.3-0.7-0.4-1-0.3c-0.4,0.1-0.6,0.4-0.7,0.8l-0.9,7.7c0,0.4,0.2,0.8,0.6,1  C27.5,36.8,27.7,36.8,27.8,36.8z M29.4,30.4c0.3,0.3,0.6,0.7,0.9,1c-0.3,0.5-0.7,0.9-1.1,1.4L29.4,30.4z M46.9,38.7  c0.8,0.5,1.7,0.9,2.6,1.4L49.1,41c-0.9-0.4-1.8-0.9-2.7-1.4L46.9,38.7z M43,37.4c-0.8-0.6-1.6-1.3-2.4-1.9l0.7-0.7  c0.7,0.6,1.5,1.3,2.3,1.8L43,37.4z M42.2,45.9c0.7,0.9,1.4,1.6,2,2.2l-0.7,0.7c-0.6-0.6-1.3-1.3-2-2.3L42.2,45.9z M38.1,40.3  c0.6,0.8,1.1,1.7,1.7,2.4L39,43.3c-0.6-0.8-1.2-1.6-1.7-2.5L38.1,40.3z M33.6,44.1c0.4,1,0.8,1.9,1.1,2.8l-0.9,0.4  c-0.4-0.9-0.7-1.8-1.1-2.8L33.6,44.1z M65.1,33.6c-0.2-0.3-0.6-0.4-0.9-0.4c-10.9,1.4-18.5-4.4-25.2-9.6c-5-3.8-9.4-7.2-14-6.4  c0-0.1,0-0.2-0.1-0.3c1.2-1,1.9-2.6,1.9-4.2v-2.2c0-3-2.5-5.5-5.5-5.5s-5.5,2.5-5.5,5.5v2.2c0,1.6,0.7,3.1,1.9,4.2  c0,0.2-0.1,0.4-0.1,0.6c-1.8,0.4-3.1,1.1-4.1,1.7c-0.6,0.3-1.2,0.8-1.7,1.3c-1.3,1.5-4.6,5.3-6.5,8.8c-0.4,0.8-0.4,1.8,0,2.6  c1.5,2.8,5.2,6.4,7.9,8.2L9.5,66.2c0,0.3,0,0.6,0.2,0.8c0.2,0.2,0.5,0.3,0.8,0.3h4.5c0.4,0,0.8-0.3,1-0.7l5.3-17.6l5.3,17.6  c0.1,0.4,0.5,0.7,1,0.7h4.5c0.3,0,0.6-0.1,0.8-0.3c0.2-0.2,0.3-0.5,0.2-0.8l-1.4-9.6c0.2,0,0.3,0,0.5,0c16.5,0,28.5-8,33.1-22.1  C65.4,34.2,65.3,33.8,65.1,33.6z M28.3,65.4l-6-20.1c-0.1-0.4-0.5-0.7-1-0.7s-0.8,0.3-1,0.7l-6,20.1h-2.6l3.6-25.7  c0.1-0.4-0.1-0.8-0.5-1c-2.4-1.4-6.2-5.1-7.7-7.8c-0.1-0.2-0.1-0.5,0-0.7c1.7-3.4,4.9-7,6.2-8.4c0.3-0.4,0.7-0.7,1.3-1  c0.9-0.5,2.2-1.2,4.1-1.6c0.4-0.1,0.7-0.4,0.8-0.7c0.2-0.7,0.3-1.4,0.4-2.1c0-0.4-0.1-0.7-0.4-0.9c-1-0.7-1.5-1.7-1.5-2.9v-2.2  c0-1.9,1.6-3.5,3.5-3.5s3.5,1.6,3.5,3.5v2.2c0,1.2-0.6,2.2-1.5,2.9c-0.3,0.2-0.5,0.6-0.4,0.9c0.1,0.7,0.2,1.4,0.4,2.1  c0.1,0.4,0.4,0.6,0.8,0.7c1.8,0.4,3.1,1.1,4.1,1.6c0.4,0.2,0.8,0.5,1.2,0.9c1.3,1.4,4.5,5,6.2,8.4c0.1,0.2,0.1,0.5,0,0.7  c-1.5,2.7-5.3,6.4-7.7,7.8c-0.3,0.2-0.5,0.6-0.5,1l3.6,25.7H28.3z M31.4,54.6l-2-14.5c0.4-0.3,0.9-0.6,1.4-1  c0.2,0.5,0.3,1.1,0.5,1.6l0.9-0.3c-0.2-0.7-0.4-1.4-0.6-2c0.9-0.8,1.8-1.6,2.6-2.5c0.3,0.5,0.6,1,0.9,1.6l0.9-0.5  c-0.4-0.7-0.7-1.3-1-1.8c0.9-1.1,1.8-2.2,2.3-3.2c0,0,0,0,0,0c0.2,0.2,0.3,0.4,0.5,0.7l0.8-0.6c-0.3-0.4-0.7-0.8-1-1.2  c0-0.5-0.1-0.9-0.3-1.3c-1.8-3.6-5.2-7.4-6.5-8.8c-0.1-0.1-0.2-0.2-0.2-0.3c2.2,1.1,4.6,2.9,7.2,4.9c6.4,4.9,14.3,11,25.1,10.2  C58.2,47.9,46.8,54.8,31.4,54.6z"></path></svg>