<svg height='100px' width='100px'  fill="#000000" xmlns="http://www.w3.org/2000/svg" xmlns:xlink="http://www.w3.org/1999/xlink" version="1.1" x="0px" y="0px" viewBox="0 0 50.4 50.4" enable-background="new 0 0 50.4 50.4" xml:space="preserve"><g><path d="M43.916,31.84l-4.455-9.807c-0.105-0.263-0.262-0.507-0.469-0.714c-0.878-0.878-2.196-0.79-2.987,0l-4.62,4.692   l0.005-8.959h7.555c0.05,0,0.096-0.012,0.145-0.015l0.019,0.027c0.112-0.006,0.22-0.041,0.33-0.063   c0.009-0.001,0.018-0.003,0.026-0.005c0.722-0.15,1.376-0.605,1.75-1.331c0.321-0.624,0.369-1.292,0.22-1.961L37.721,2.308   c-0.366-1.412-1.27-2.334-2.606-2.231c-1.416,0.061-2.635,1.465-2.386,2.931l2.867,8.79l-2.889-0.016H18.829h-0.088l4.831-4.831   c0.703-1.229,0.265-2.811-0.966-3.513c-1.142-0.615-2.635-0.264-3.338,0.791l-8.52,8.52c-0.439,0.439-0.791,1.054-0.791,1.756   c0,1.406,1.143,2.548,2.548,2.548h7.466v8.959l-4.621-4.692c-0.791-0.79-2.108-0.878-2.987,0c-0.207,0.207-0.363,0.452-0.469,0.714   L7.439,31.84H0V50.4h50.4V31.84H43.916z M12.122,31.84l2.377-5.404l4.417,4.406c0.505,0.506,1.193,0.877,1.957,0.998H12.122z    M25.679,41.963c-2.284,0-4.129-1.845-4.129-4.129c0-2.283,1.845-4.128,4.129-4.128s4.128,1.845,4.128,4.128   C29.807,40.118,27.963,41.963,25.679,41.963z M30.482,31.84c0.763-0.121,1.45-0.492,1.956-0.998l4.418-4.406l2.377,5.404H30.482z"></path></g></svg>