<svg height='100px' width='100px'  fill="#000000" xmlns="http://www.w3.org/2000/svg" xmlns:xlink="http://www.w3.org/1999/xlink" version="1.1" x="0px" y="0px" viewBox="0 0 100 100" style="enable-background:new 0 0 100 100;" xml:space="preserve"><path d="M96.8,43H73.4V22.7h3.1c0.9,0,1.6-0.7,1.6-1.6V11c0-0.9-0.7-1.6-1.6-1.6h-6.2V3.2c0-0.9-0.7-1.6-1.6-1.6h-39  c-0.9,0-1.6,0.7-1.6,1.6v6.2h-4.7c-0.9,0-1.6,0.7-1.6,1.6v10.1c0,0.9,0.7,1.6,1.6,1.6h3.1V43H3.2c-0.9,0-1.6,0.7-1.6,1.6v7.8  c0,0.9,0.7,1.6,1.6,1.6h3.1v42.9c0,0.9,0.7,1.6,1.6,1.6c9.1,0,74.2,0,84.2,0c0.9,0,1.6-0.7,1.6-1.6V53.9h3.1c0.9,0,1.6-0.7,1.6-1.6  v-7.8C98.4,43.7,97.7,43,96.8,43z M31.3,4.8h35.9v4.7H31.3V4.8z M25,12.6c12.7,0,46,0,49.9,0v7H25V12.6z M4.8,46.1h21.8v4.7  c-8.2,0-14.1,0-21.8,0V46.1z M9.4,53.9h17.2v41.3H9.4V53.9z M29.7,22.7h40.6c0,14.7,0,57.3,0,72.5h-8.6V73.4c0-0.9-0.7-1.6-1.6-1.6  H38.3c-0.9,0-1.6,0.7-1.6,1.6v21.8h-7C29.7,79.9,29.7,37.2,29.7,22.7z M39.9,95.2V75h18.7v20.3H39.9z M90.6,95.2H73.4V53.9h17.2  V95.2z M95.2,50.8c-8,0-13.6,0-21.8,0v-4.7h21.8V50.8z M21.9,62.5h-7.8c-0.9,0-1.6,0.7-1.6,1.6v6.2c0,0.9,0.7,1.6,1.6,1.6h7.8  c0.9,0,1.6-0.7,1.6-1.6V64C23.5,63.2,22.8,62.5,21.9,62.5z M20.4,68.7h-4.7v-3.1h4.7V68.7z M78.1,71.8h7.8c0.9,0,1.6-0.7,1.6-1.6V64  c0-0.9-0.7-1.6-1.6-1.6h-7.8c-0.9,0-1.6,0.7-1.6,1.6v6.2C76.5,71.1,77.2,71.8,78.1,71.8z M79.6,65.6h4.7v3.1h-4.7V65.6z M21.9,78.1  h-7.8c-0.9,0-1.6,0.7-1.6,1.6v6.2c0,0.9,0.7,1.6,1.6,1.6h7.8c0.9,0,1.6-0.7,1.6-1.6v-6.2C23.5,78.8,22.8,78.1,21.9,78.1z M20.4,84.3  h-4.7v-3.1h4.7V84.3z M78.1,87.4h7.8c0.9,0,1.6-0.7,1.6-1.6v-6.2c0-0.9-0.7-1.6-1.6-1.6h-7.8c-0.9,0-1.6,0.7-1.6,1.6v6.2  C76.5,86.7,77.2,87.4,78.1,87.4z M79.6,81.2h4.7v3.1h-4.7V81.2z M50,51.6c6.5,0,11.7-5.2,11.7-11.7S56.5,28.2,50,28.2  s-11.7,5.2-11.7,11.7S43.5,51.6,50,51.6z M50,31.3c4.7,0,8.6,3.8,8.6,8.6s-3.8,8.6-8.6,8.6s-8.6-3.8-8.6-8.6S45.3,31.3,50,31.3z   M48.4,39.9v-6.2c0-0.9,0.7-1.6,1.6-1.6s1.6,0.7,1.6,1.6v4.7h2.3c0.9,0,1.6,0.7,1.6,1.6s-0.7,1.6-1.6,1.6H50  C49.1,41.4,48.4,40.7,48.4,39.9z M53.9,58.6v6.2c0,0.9,0.7,1.6,1.6,1.6H64c0.9,0,1.6-0.7,1.6-1.6v-6.2c0-0.9-0.7-1.6-1.6-1.6h-8.6  C54.6,57,53.9,57.7,53.9,58.6z M57,60.1h5.5v3.1H57V60.1z M36.7,66.4h8.6c0.9,0,1.6-0.7,1.6-1.6v-6.2c0-0.9-0.7-1.6-1.6-1.6h-8.6  c-0.9,0-1.6,0.7-1.6,1.6v6.2C35.2,65.7,35.9,66.4,36.7,66.4z M38.3,60.1h5.5v3.1h-5.5V60.1z"></path></svg>