<svg height='100px' width='100px'  fill="#000000" xmlns="http://www.w3.org/2000/svg" xmlns:xlink="http://www.w3.org/1999/xlink" version="1.1" x="0px" y="0px" viewBox="0 0 100 100" enable-background="new 0 0 100 100" xml:space="preserve"><path d="M22.6,83.5L8.1,66c-2.1-2.3-3.6-4.8-4-7.9l-0.1-0.9L1.4,32.8c-0.1-1.2,0.3-2.4,1.2-3.2c1.1-0.9,2.9-1.2,4.3,0.3  c0.9,1.1,1.4,4.4,1.6,5.3c0.5,3.2,1.1,7.8,1.2,11c0,0.2,0,0.5,0,0.7c0.1,1.4,0.4,2.7,1,4C13.9,58,20.5,67,20.5,67l0.4,0.5  c0.3,0.4,0.8,0.5,1.2,0.3c0.5-0.3,0.6-0.9,0.4-1.3l-8.7-14.1c-0.9-1.6-0.4-3.8,1.3-4.8c1.7-1,3.9-0.5,4.9,1.1l9,11.6  c0.6,0.8,1.7,1.9,2.5,2.4c8.1,5.8,9.2,11.8,9.9,14.8c0,0,0.1,0.7,0.1,1.7h0l0,0c0,0.8,0,1.8-0.2,2.8l-0.5,9.7c0,0.7-0.6,1.3-1.3,1.3  l-15.2-0.1c-0.7,0-1.3-0.6-1.3-1.3L22.6,83.5z M10.5,31.5c0.3,0.9,0.4,1.7,0.6,2.6c0.5,2.8,1.1,7.8,1.2,10.4c0,0.3,0,0.5,0,0.8  c0.3-0.3,0.6-0.5,1-0.7c0.4-0.3,0.9-0.5,1.4-0.6c0,0,0-0.1,0.1-0.1c-0.3-2.5-1.2-7.3-1.9-9.8C12.5,32.8,11.8,31.9,10.5,31.5z   M15.4,35c0.4,1.8,1.4,5.2,1.7,7l0.2,1.2c0,0.1,0,0.2,0,0.3c0.7,0,1.5,0.2,2.2,0.4c-0.2-1.6-1.3-4.9-1.7-6.4  C17.3,36.3,16.6,35.4,15.4,35z M93.1,29.8c-0.9,1.1-1.4,4.4-1.6,5.3c-0.5,3.2-1.1,7.8-1.2,11c0,0.2,0,0.5,0,0.7  c-0.1,1.4-0.4,2.7-1,4C86.1,58,79.5,67,79.5,67l-0.4,0.5c-0.3,0.4-0.8,0.5-1.2,0.3c-0.5-0.3-0.6-0.9-0.4-1.3l8.7-14.1  c0.9-1.6,0.4-3.8-1.3-4.8c-1.7-1-3.9-0.5-4.9,1.1l-9,11.6c-0.6,0.8-1.7,1.9-2.5,2.4c-8.1,5.8-9.2,11.8-9.9,14.8c0,0-0.1,0.7-0.1,1.7  v0c0,0.8,0,1.8,0.2,2.8l0.5,9.7c0,0.7,0.6,1.3,1.3,1.3l15.2-0.1c0.7,0,1.3-0.6,1.3-1.3l0.3-8L91.9,66c2.1-2.3,3.6-4.8,4.1-7.9  l0.1-0.9l2.5-24.5c0.1-1.2-0.3-2.4-1.2-3.2C96.2,28.6,94.4,28.3,93.1,29.8z M87.7,45.3c0-0.3,0-0.5,0-0.8c0.1-2.7,0.7-7.6,1.2-10.4  c0.1-0.8,0.3-1.7,0.6-2.6c-1.3,0.4-2,1.3-2.3,2.6c-0.7,2.5-1.5,7.3-1.9,9.8c0,0,0,0.1,0.1,0.1c0.5,0.2,0.9,0.4,1.4,0.6  C87.1,44.8,87.4,45.1,87.7,45.3z M82.9,42c0.2-1.8,1.3-5.1,1.7-7c-1.2,0.4-1.9,1.3-2.3,2.5c-0.4,1.5-1.5,4.8-1.7,6.4  c0.7-0.3,1.4-0.4,2.2-0.4c0-0.1,0-0.2,0-0.3L82.9,42z M70.1,19.2L67.3,22c1.5,2.3,2.6,4.9,3.2,7.7h4c1,0,1.8,0.8,1.8,1.8v4.8  c0,1-0.8,1.8-1.8,1.8h-4c-0.6,2.8-1.7,5.4-3.2,7.7l2.8,2.8c0.7,0.7,0.7,1.8,0,2.5l-3.4,3.4c-0.7,0.7-1.8,0.7-2.5,0l-2.8-2.8  c-2.3,1.5-4.9,2.7-7.7,3.2v4c0,1-0.8,1.8-1.8,1.8H47c-1,0-1.8-0.8-1.8-1.8v-4c-2.8-0.6-5.4-1.7-7.7-3.2l-2.8,2.8  c-0.7,0.7-1.8,0.7-2.5,0l-3.4-3.4c-0.7-0.7-0.7-1.8,0-2.5l2.8-2.8c-1.5-2.3-2.6-4.9-3.2-7.7h-4c-1,0-1.8-0.8-1.8-1.8v-4.8  c0-1,0.8-1.8,1.8-1.8h4c0.6-2.8,1.7-5.4,3.2-7.7l-2.8-2.8c-0.7-0.7-0.7-1.8,0-2.5l3.4-3.4c0.7-0.7,1.8-0.7,2.5,0l2.8,2.8  c2.3-1.5,4.9-2.7,7.7-3.2v-4c0-1,0.8-1.8,1.8-1.8h4.8c1,0,1.8,0.8,1.8,1.8v4c2.8,0.6,5.4,1.7,7.7,3.2l2.8-2.8c0.7-0.7,1.8-0.7,2.5,0  l3.4,3.4C70.8,17.4,70.8,18.5,70.1,19.2z M58.6,30l-3.4-3.5l-7.9,7.9l-3.3-3.3l-3.5,3.4l3.3,3.3l3.4,3.5l3.5-3.4L58.6,30z"></path></svg>