<svg height='100px' width='100px'  fill="#000000" xmlns="http://www.w3.org/2000/svg" xmlns:xlink="http://www.w3.org/1999/xlink" version="1.1" x="0px" y="0px" viewBox="0 0 128 128" style="enable-background:new 0 0 128 128;" xml:space="preserve"><g><path d="M82.0302734,115.3632813c0.2549438,1.5986328,1.1201172,2.9755859,2.4375,3.8789063   C85.4375,119.906311,86.5576172,120.25,87.7138672,120.25c0.4140015,0,0.8340454-0.0439453,1.2519531-0.1337891L91.2578125,119.625   c3.1787109-0.6816406,5.3496094-3.8477173,4.8388672-7.0585938l-0.6270142-3.9316406   c-0.2548828-1.5986938-1.1200562-2.9755859-2.4375-3.8789063c-1.3173828-0.9024048-2.9130859-1.2149048-4.4979858-0.8740845   l-2.2919922,0.4912109c-3.1787109,0.6817017-5.3496094,3.8477173-4.8378906,7.0595703L82.0302734,115.3632813z"></path></g><g><g><path d="M14.5004883,107c5.1337891,0,9.6351929-2.6309204,12.2119141-6.5878906C29.1552734,104.9267578,33.9644165,108,39.5,108    c5.3427734,0,9.9990234-2.8682251,12.5142212-7.1260376C54.7460938,105.718811,59.9824219,109,65.9990234,109    c2.7411499,0,5.3212891-0.6826172,7.5761719-1.8809204c-0.5957031,2.2382813-0.75,4.6329346-0.3389282,7.0645142    c0.7422485,4.3983765,3.1465454,8.2323608,6.7676392,10.7977905c2.8026733,1.984375,6.0741577,3.0206299,9.4306641,3.0206299    c0.9335938,0,1.8740234-0.0811157,2.8125-0.2432251l22.0449219-3.7852173    c8.6542969-1.4852905,14.5692749-9.5664063,13.5770874-18.2547607c0.006897-0.1856079,0.0137329-0.3790283,0.0205078-0.5606079    c0.218811-5.6602173,0.3759766-9.75-2.2860718-16.1201172c-0.8408203-2.0108032-1.8525391-3.7109985-2.8301392-5.3555298    c-1.7362671-2.9179688-3.2352905-5.4375-3.4647827-9.0995483c-0.6016235-9.5859375-0.234375-24.3662109,0.3261719-35.4170532    C124.6483765,35.9619141,128,30.359375,128,24v-6c0-9.9003906-8.0996094-18-18-18h-10c-9.9003906,0-18,8.0996094-18,18v5.7841797    C82,15.0664063,74.8358765,8,65.9990234,8C57.1646118,8,50,15.0664063,50,23.7841797v2.6884766    C47.3583984,23.7226563,43.6361694,22,39.5,22C31.4937134,22,25,28.4248047,25,36.3515625v7.0898438    C22.3583984,40.7108765,18.6356812,39,14.5004883,39C6.4921875,39,0,45.3789063,0,53.25v39.5020142    C0,100.6200562,6.4921875,107,14.5004883,107z M86,18c0-7.7197266,6.2802734-14,14-14h10c7.7196655,0,14,6.2802734,14,14v6    c0,5.2440796-2.9022827,9.8183594-7.1815796,12.2167969c-0.0782471,0.0380859-0.1542969,0.0791016-0.2266235,0.1278687    C114.6259766,37.3983765,112.3828125,38,110,38h-10c-7.7197266,0-14-6.2803345-14-14V18z M110.5253906,66.2938843    c-0.7158203,0.8408813-1.9766235,0.944397-2.8192749,0.2315063C107.5927734,66.4325562,104.5518188,64,98.5615234,64    c-6.0195313,0-9.2627563,2.5214844-9.2929077,2.546875C88.8964844,66.8515625,88.4472656,67,88.0009766,67    c-0.578064,0-1.1524048-0.25-1.5479126-0.7314453c-0.7001953-0.8544922-0.5751953-2.1142578,0.2783203-2.8154907    C86.9033203,63.3125,91.0292969,60,98.5615234,60c7.5507813,0,11.5654907,3.3330078,11.7323608,3.4746094    C111.1367188,64.1895142,111.2393188,65.4520874,110.5253906,66.2938843z M87.3837891,98.9755859l22.0449219-3.7958984    c0.7060547-0.1210938,1.4121094-0.1807251,2.1151733-0.1807251c2.5430298,0,5.0214844,0.7861938,7.1436157,2.2901001    c2.7451172,1.9472046,4.5684204,4.859314,5.1328125,8.2011108c0.0194702,0.1171875,0.024353,0.2333984,0.0409546,0.3505859    c-0.024353,0.6748047-0.0487671,1.3672485-0.0692749,2.1055298c-0.0078125,0.2802734,0.0438843,0.5487671,0.1416016,0.7938843    c-0.4981079,5.5557251-4.6240234,10.3135376-10.3192749,11.2919922l-22.046936,3.7852173    c-3.2597656,0.5615234-6.5440063-0.1835938-9.2520142-2.1005859c-2.7469482-1.9453125-4.5712891-4.8574219-5.1356812-8.1992188    C76.0214844,106.6621094,80.5977173,100.1386719,87.3837891,98.9755859z M54,36.3515625V23.7841797    C54,17.2860718,59.3828125,12,65.9990234,12C72.6162109,12,78,17.2860718,78,23.7841797v69.4315796    C78,99.7138672,72.6162109,105,65.9990234,105C59.3828125,105,54,99.7138672,54,93.2157593V36.3515625z M29,92.7520142V53.25    V36.3515625C29,30.6435547,33.7103882,26,39.5,26S50,30.6435547,50,36.3515625v56.8641968v0.4346313    C50,99.3573608,45.2896118,104,39.5,104S29,99.3573608,29,93.6503906V92.7520142z M4,53.25    C4,47.5976563,8.7103882,43,14.5004883,43C20.289978,43,25,47.5976563,25,53.25v39.5020142    C25,98.4022827,20.289978,103,14.5004883,103C8.7103882,103,4,98.4022827,4,92.7520142V53.25z"></path></g></g><g><path d="M94,20.2509766c0.4462891,0,0.8955078-0.1484985,1.2675781-0.453064   c0.0303345-0.0254517,3.2734375-2.546936,9.2929077-2.546936c5.9902954,0,9.031311,2.4326172,9.1445923,2.5253906   c0.8428345,0.7128906,2.1035156,0.609314,2.8193359-0.2315063c0.7138672-0.8417969,0.6112671-2.1044922-0.2313843-2.8192749   c-0.1670532-0.1416016-4.1817627-3.4746094-11.7325439-3.4746094c-7.5321655,0-11.6582031,3.3125-11.8300171,3.453125   c-0.8534546,0.7011719-0.9784546,1.9608765-0.2783813,2.8153687C92.8477173,20.0009766,93.421875,20.2509766,94,20.2509766z"></path></g></svg>