<svg xmlns="http://www.w3.org/2000/svg" xmlns:xlink="http://www.w3.org/1999/xlink" version="1.1" x="0px" y="0px" viewBox="0 0 64 64" style="enable-background:new 0 0 64 64;" xml:space="preserve"><path d="M16,45c-1.654,0-3-1.346-3-3h-2c0,1.654-1.346,3-3,3v2c1.654,0,3,1.346,3,3h2c0-1.654,1.346-3,3-3V45z M12,47.031  c-0.292-0.393-0.638-0.739-1.031-1.031c0.393-0.292,0.739-0.638,1.031-1.031c0.292,0.393,0.638,0.739,1.031,1.031  C12.638,46.292,12.292,46.638,12,47.031z"></path><path d="M62,46h-2V19c0-9.374-7.627-17-17.003-17H42.5C32.851,2,25,9.851,25,19.5V27c0,0.552,0.448,1,1,1h3v2c0,0.552,0.448,1,1,1  h2.829c-0.413,1.164-1.525,2-2.829,2c-0.552,0-1,0.448-1,1v1c0,2.757,2.243,5,5,5h10v6H31c-8.271,0-15,6.729-15,15v1h2v-1  c0-7.168,5.832-13,13-13h13.42l7.712,13.496C52.311,61.809,52.643,62,53,62c0.019,0,0.038,0,0.057-0.001  c0.379-0.022,0.712-0.256,0.862-0.604L59.659,48H62V46z M45,38H34c-1.654,0-3-1.346-3-3v-0.101c2.279-0.464,4-2.485,4-4.899  c0-0.552-0.448-1-1-1h-3v-2c0-0.552-0.448-1-1-1h-3v-6.5C27,10.953,33.953,4,42.5,4h0.497C51.27,4,58,10.729,58,19v27H46v-7  C46,38.448,45.552,38,45,38z M52.872,58.76L46.723,48h10.76L52.872,58.76z"></path><path d="M26.901,34.433c0.167-0.346,0.12-0.758-0.121-1.058L23,28.649V18c0-2.757-2.243-5-5-5H7c-2.757,0-5,2.243-5,5v12  c0,2.757,2.243,5,5,5h19C26.384,35,26.735,34.78,26.901,34.433z M7,33c-1.654,0-3-1.346-3-3V18c0-1.654,1.346-3,3-3h11  c1.654,0,3,1.346,3,3v11c0,0.227,0.077,0.447,0.219,0.625l2.7,3.375H7z"></path><path d="M12.5,18C8.916,18,6,20.691,6,24s2.916,6,6.5,6s6.5-2.691,6.5-6S16.084,18,12.5,18z M16.84,23h-1.872  c-0.042-0.712-0.141-1.643-0.363-2.514C15.7,21.007,16.521,21.909,16.84,23z M12.038,25h0.924c-0.077,1.155-0.271,2.037-0.462,2.559  C12.309,27.037,12.115,26.155,12.038,25z M12.038,23c0.077-1.155,0.271-2.037,0.462-2.559c0.191,0.522,0.385,1.404,0.462,2.559  H12.038z M10.395,20.486c-0.222,0.87-0.321,1.802-0.363,2.514H8.16C8.479,21.909,9.3,21.007,10.395,20.486z M8.16,25h1.872  c0.042,0.712,0.141,1.643,0.363,2.514C9.3,26.993,8.479,26.091,8.16,25z M14.605,27.514c0.222-0.87,0.321-1.802,0.363-2.514h1.872  C16.521,26.091,15.7,26.993,14.605,27.514z"></path><path d="M36,21c-1.654,0-3-1.346-3-3h-2c0,2.757,2.243,5,5,5s5-2.243,5-5h-2C39,19.654,37.654,21,36,21z"></path><rect x="41" y="50" width="2" height="2"></rect><rect x="37" y="50" width="2" height="2"></rect><rect x="33" y="50" width="2" height="2"></rect></svg>