<?xml version="1.0" encoding="UTF-8"?>
<svg xmlns="http://www.w3.org/2000/svg" version="1.1" viewBox="0 0 487.3 503">
  <!-- Generator: Adobe Illustrator 29.7.1, SVG Export Plug-In . SVG Version: 2.1.1 Build 8)  -->
  <defs>
    <style>
      .st0 {
        fill: #f6f6f6;
      }

      .st1 {
        fill: #fff;
      }

      .st2 {
        stroke-width: 12px;
      }

      .st2, .st3 {
        fill: none;
        stroke: #000;
        stroke-miterlimit: 10;
      }

      .st3 {
        stroke-width: 20px;
      }
    </style>
  </defs>
  <g id="Layer_2">
    <circle class="st0" cx="243.6" cy="251.7" r="243.6"/>
  </g>
  <g id="Layer_1">
    <path d="M354.4,307.1c-8.9,25.7-19.8,45.5-32.6,59.5-12.3,13.7-28.3,23.5-46.1,28.4-8.9,2.5-18,3.8-27.2,4-9.8.2-19.6-.5-29.3-2-10.6-1.7-21.2-4-31.5-6.9-10.9-3-22.1-6.5-33.6-10.5-5.7-2-11.6-4.1-17.7-6.2l-17.8-6.4-16.4-5.9c-5.1-1.9-9.7-3.5-13.7-4.8-7.7-2.6-13.5-3.6-17.4-2.8-3.9.8-6.7,3.7-8.5,8.7-1,3-1.7,6.1-2,9.3-.3,3.3-.3,6.5,0,9.8l-29.4-10.2c-.3-4-.3-7.9,0-11.9.3-4.4,1.1-8.7,2.5-12.8,4.3-12.4,11.6-20.3,21.9-23.4,10.3-3.2,23.3-2.1,38.9,3.4,5,1.8,10.8,3.8,17.3,6.1l20.1,7.1,20.5,7.3c6.8,2.4,13,4.6,18.5,6.5,16.3,5.8,33.1,10.2,50.1,13.2,15.5,2.6,29.8,2,42.7-2,12.7-3.8,23.9-11.3,32.3-21.5,9-10.5,16.7-25.1,23.2-43.8,3.9-11,6.8-22.3,8.7-33.8,1.5-10.1.6-18.9-2.6-26.3-1.9-4.7-4.7-8.9-8.4-12.4-3.8-3.6-9.1-6.6-15.8-8.9-16.5-5.7-30.8-4.9-42.8,2.5-12,7.4-21.5,21.2-28.4,41.3l-25.6,73.9-32.6-11.3,72.2-208.5-68.1-23.6-84.9,245.2-32.6-11.3L153.6,51.9l121.1,76.8,185.9-3,.5-.2-184.1,51.2-24.8,21.1.6.2c8.7-7,19.3-11.3,30.4-12.4,11.1-1,22.8.5,34.9,4.8,11.3,3.9,20.3,9.3,27.1,16.2,6.8,6.8,11.9,15.1,15,24.2,3.5,10.3,4.7,21.8,3.5,34.7-1.2,12.9-4.3,26.7-9.4,41.5Z"/>
    <circle cx="203.8" cy="141.9" r="15.9"/>
    <circle class="st1" cx="203.8" cy="141.9" r="4.9"/>
    <line class="st3" x1="286.8" y1="381.2" x2="271.4" y2="472.8"/>
    <line class="st2" x1="267.6" y1="467.1" x2="246.8" y2="484.1"/>
    <line class="st2" x1="301.4" y1="470.3" x2="274.7" y2="467.6"/>
    <line class="st2" x1="274.8" y1="468.6" x2="277.3" y2="495.3"/>
    <line class="st3" x1="288.1" y1="373.3" x2="326.5" y2="457.8"/>
    <line class="st2" x1="320.1" y1="455.3" x2="312.3" y2="480.9"/>
    <line class="st2" x1="349.9" y1="439" x2="326.2" y2="451.7"/>
    <line class="st2" x1="326.9" y1="452.5" x2="343.9" y2="473.2"/>
  </g>
</svg>