<svg xmlns="http://www.w3.org/2000/svg" xmlns:xlink="http://www.w3.org/1999/xlink" version="1.1" x="0px" y="0px" viewBox="0 0 66 66" enable-background="new 0 0 66 66" xml:space="preserve"><g><path d="M5.995,32.151c0.414,0,0.75-0.336,0.75-0.75v-1.298h4.091v2.23c0,0.414,0.336,0.75,0.75,0.75h5.203v4.964L5.771,51.86   c-0.066,0.083-0.163,0.331-0.163,0.468c0,3.367-0.004,7.54-0.004,8.235c0,2.447,1.99,4.437,4.437,4.437h45.918   c2.447,0,4.437-1.99,4.437-4.437c0-0.159-0.005-2.51-0.005-8.235c0-0.167-0.096-0.383-0.164-0.468L49.136,37.952v-4.87h5.278   c0.414,0,0.75-0.336,0.75-0.75v-2.23h4.091v1.298c0,0.414,0.336,0.75,0.75,0.75c0.414,0,0.75-0.336,0.75-0.75v-4.097   c0-0.414-0.336-0.75-0.75-0.75c-0.414,0-0.75,0.336-0.75,0.75v1.298h-4.091v-2.23c0-0.414-0.336-0.75-0.75-0.75H43.65v-9.021   c0.03-0.218,0-0.418-0.23-0.64l-4.735-4.554c-0.138-0.132-0.365-0.209-0.52-0.209H23.1c-0.414,0-0.75,0.336-0.75,0.75v13.673   H11.586c-0.414,0-0.75,0.336-0.75,0.75v2.23H6.745v-1.298c0-0.414-0.336-0.75-0.75-0.75c-0.414,0-0.75,0.336-0.75,0.75v4.097   C5.245,31.815,5.581,32.151,5.995,32.151z M38.915,13.711l2.123,2.042h-2.123V13.711z M23.85,12.699h13.565v3.804   c0,0.414,0.336,0.75,0.75,0.75h3.985v8.365H23.85V12.699z M48.086,39.043l10.805,13.548v4.945H7.108v-4.945l10.805-13.548H48.086z    M58.896,60.563c0,1.62-1.317,2.937-2.937,2.937H10.041c-1.62,0-2.937-1.317-2.937-2.937V59.04h51.792V60.563z M47.636,37.543   H18.289v-4.46h29.347V37.543z M12.336,27.123h41.328v4.46H12.336V27.123z"></path><path d="M38.619,18.86H27.382c-0.414,0-0.75,0.336-0.75,0.75c0,0.414,0.336,0.75,0.75,0.75h11.237c0.414,0,0.75-0.336,0.75-0.75   C39.369,19.196,39.033,18.86,38.619,18.86z"></path><path d="M38.619,21.977H27.382c-0.414,0-0.75,0.336-0.75,0.75c0,0.414,0.336,0.75,0.75,0.75h11.237c0.414,0,0.75-0.336,0.75-0.75   C39.369,22.312,39.033,21.977,38.619,21.977z"></path><path d="M33,5.978c0.414,0,0.75-0.336,0.75-0.75V1.75C33.75,1.336,33.414,1,33,1c-0.414,0-0.75,0.336-0.75,0.75v3.478   C32.25,5.642,32.586,5.978,33,5.978z"></path><path d="M26.734,6.465c0.142,0.39,0.573,0.59,0.961,0.448c0.389-0.142,0.59-0.572,0.448-0.961l-1.189-3.269   c-0.142-0.389-0.571-0.591-0.961-0.448c-0.389,0.142-0.59,0.572-0.448,0.961L26.734,6.465z"></path><path d="M21.974,9.514c0.268,0.319,0.742,0.357,1.057,0.093c0.317-0.267,0.359-0.739,0.093-1.057l-2.235-2.664   c-0.266-0.317-0.74-0.359-1.057-0.093c-0.317,0.267-0.359,0.739-0.093,1.057L21.974,9.514z"></path><path d="M15.532,12.268l3.012,1.739c0.357,0.207,0.817,0.085,1.024-0.274c0.207-0.359,0.085-0.817-0.274-1.024l-3.012-1.739   c-0.358-0.207-0.817-0.085-1.024,0.274C15.051,11.603,15.173,12.061,15.532,12.268z"></path><path d="M13.433,18.798l3.425,0.604c0.401,0.071,0.796-0.195,0.869-0.608c0.072-0.408-0.201-0.797-0.608-0.869l-3.425-0.604   c-0.406-0.073-0.797,0.201-0.869,0.608C12.752,18.337,13.025,18.726,13.433,18.798z"></path><path d="M48.273,18.794c0.073,0.413,0.468,0.68,0.869,0.608l3.425-0.604c0.408-0.072,0.68-0.461,0.608-0.869   c-0.072-0.408-0.461-0.681-0.869-0.608l-3.425,0.604C48.474,17.997,48.202,18.386,48.273,18.794z"></path><path d="M46.432,13.732c0.207,0.359,0.667,0.481,1.024,0.274l3.012-1.739c0.359-0.207,0.482-0.665,0.274-1.024   c-0.207-0.36-0.667-0.481-1.024-0.274l-3.012,1.739C46.347,12.915,46.225,13.374,46.432,13.732z"></path><path d="M44.026,9.514l2.236-2.664c0.266-0.317,0.225-0.79-0.093-1.057c-0.316-0.265-0.791-0.224-1.057,0.093L42.876,8.55   c-0.266,0.317-0.225,0.79,0.093,1.057C43.286,9.872,43.759,9.831,44.026,9.514z"></path><path d="M38.305,6.913c0.388,0.141,0.819-0.058,0.961-0.448l1.189-3.269c0.142-0.389-0.059-0.819-0.448-0.961   c-0.387-0.141-0.819,0.059-0.961,0.448l-1.189,3.269C37.715,6.341,37.916,6.771,38.305,6.913z"></path><path d="M18.841,47.281h3.24c0.414,0,0.75-0.336,0.75-0.75v-3.24c0-0.414-0.336-0.75-0.75-0.75h-3.24   c-0.414,0-0.75,0.336-0.75,0.75v3.24C18.091,46.945,18.427,47.281,18.841,47.281z M19.591,44.041h1.74v1.74h-1.74V44.041z"></path><path d="M25.11,47.281h3.24c0.414,0,0.75-0.336,0.75-0.75v-3.24c0-0.414-0.336-0.75-0.75-0.75h-3.24c-0.414,0-0.75,0.336-0.75,0.75   v3.24C24.36,46.945,24.696,47.281,25.11,47.281z M25.86,44.041h1.74v1.74h-1.74V44.041z"></path><path d="M31.379,47.281h3.24c0.414,0,0.75-0.336,0.75-0.75v-3.24c0-0.414-0.336-0.75-0.75-0.75h-3.24   c-0.414,0-0.75,0.336-0.75,0.75v3.24C30.629,46.945,30.965,47.281,31.379,47.281z M32.129,44.041h1.74v1.74h-1.74V44.041z"></path><path d="M37.649,47.281h3.24c0.414,0,0.75-0.336,0.75-0.75v-3.24c0-0.414-0.336-0.75-0.75-0.75h-3.24   c-0.414,0-0.75,0.336-0.75,0.75v3.24C36.899,46.945,37.235,47.281,37.649,47.281z M38.399,44.041h1.74v1.74h-1.74V44.041z"></path><path d="M43.918,47.281h3.24c0.414,0,0.75-0.336,0.75-0.75v-3.24c0-0.414-0.336-0.75-0.75-0.75h-3.24   c-0.414,0-0.75,0.336-0.75,0.75v3.24C43.168,46.945,43.504,47.281,43.918,47.281z M44.668,44.041h1.74v1.74h-1.74V44.041z"></path><path d="M15.812,48.76h-3.24c-0.414,0-0.75,0.336-0.75,0.75v3.241c0,0.414,0.336,0.75,0.75,0.75h3.24c0.414,0,0.75-0.336,0.75-0.75   V49.51C16.562,49.096,16.226,48.76,15.812,48.76z M15.062,52h-1.74V50.26h1.74V52z"></path><path d="M18.841,53.5h3.24c0.414,0,0.75-0.336,0.75-0.75V49.51c0-0.414-0.336-0.75-0.75-0.75h-3.24c-0.414,0-0.75,0.336-0.75,0.75   v3.241C18.091,53.165,18.427,53.5,18.841,53.5z M19.591,50.26h1.74V52h-1.74V50.26z"></path><path d="M25.11,53.5h3.24c0.414,0,0.75-0.336,0.75-0.75V49.51c0-0.414-0.336-0.75-0.75-0.75h-3.24c-0.414,0-0.75,0.336-0.75,0.75   v3.241C24.36,53.165,24.696,53.5,25.11,53.5z M25.86,50.26h1.74V52h-1.74V50.26z"></path><path d="M31.379,53.5h3.24c0.414,0,0.75-0.336,0.75-0.75V49.51c0-0.414-0.336-0.75-0.75-0.75h-3.24c-0.414,0-0.75,0.336-0.75,0.75   v3.241C30.629,53.165,30.965,53.5,31.379,53.5z M32.129,50.26h1.74V52h-1.74V50.26z"></path><path d="M37.649,53.5h3.24c0.414,0,0.75-0.336,0.75-0.75V49.51c0-0.414-0.336-0.75-0.75-0.75h-3.24c-0.414,0-0.75,0.336-0.75,0.75   v3.241C36.899,53.165,37.235,53.5,37.649,53.5z M38.399,50.26h1.74V52h-1.74V50.26z"></path><path d="M43.918,53.5h3.24c0.414,0,0.75-0.336,0.75-0.75V49.51c0-0.414-0.336-0.75-0.75-0.75h-3.24c-0.414,0-0.75,0.336-0.75,0.75   v3.241C43.168,53.165,43.504,53.5,43.918,53.5z M44.668,50.26h1.74V52h-1.74V50.26z"></path><path d="M50.188,53.5h3.24c0.414,0,0.75-0.336,0.75-0.75V49.51c0-0.414-0.336-0.75-0.75-0.75h-3.24c-0.414,0-0.75,0.336-0.75,0.75   v3.241C49.438,53.165,49.773,53.5,50.188,53.5z M50.938,50.26h1.74V52h-1.74V50.26z"></path></g></svg>