<?xml version="1.0" encoding="UTF-8"?>
<svg id="Layer_2" data-name="Layer 2" xmlns="http://www.w3.org/2000/svg" viewBox="0 0 2500 2886.75">
  <defs>
    <style>
      .cls-1 {
        fill: #0170c2;
      }

      .cls-2 {
        fill: #ed1b24;
      }

      .cls-3 {
        fill: #fef200;
      }

      .cls-4 {
        fill: #fefbf6;
      }

      .cls-5 {
        fill: #0170c2;
      }

      .cls-6 {
        fill: #eee825;
      }
    </style>
  </defs>
  <g id="Layer_1-2" data-name="Layer 1">
    <polygon class="cls-5" points="0 721.69 0 2165.06 1250 2886.75 2500 2165.06 2500 721.69 1250 0 0 721.69"/>
    <circle class="cls-4" cx="1250" cy="1443.38" r="1250"/>
    <g>
      <polygon class="cls-3" points="2035.91 1104.99 459.46 1104.99 200.97 1445.1 2300 1445.1 2035.91 1104.99"/>
      <polygon class="cls-5" points="1772.57 759.1 724.75 758.38 459.46 1104.99 2035.91 1104.99 1772.57 759.1"/>
      <polygon class="cls-3" points="1248.57 357.67 1010.65 758.6 1487.68 758.93 1248.57 357.67"/>
      <polygon class="cls-1" points="1011.11 758.58 805.45 1104.99 1688.9 1104.99 1482.57 758.9 1011.11 758.58"/>
      <polygon class="cls-1" points="603.54 1445.1 200 2124.84 2295.81 2122.98 1891.67 1445.1 603.54 1445.1"/>
      <polygon class="cls-6" points="805.45 1104.99 603.54 1445.1 1891.67 1445.1 1688.9 1104.99 805.45 1104.99"/>
      <polygon class="cls-3" points="1011.11 758.58 805.45 1104.99 1100.74 1104.99 1168.61 758.69 1011.11 758.58"/>
      <polygon class="cls-2" points="603.54 1445.1 200 2124.84 901.25 2122.98 1034.09 1445.1 603.54 1445.1"/>
      <polygon class="cls-1" points="603.54 1445.1 1034.09 1445.1 1100.74 1104.99 805.45 1104.99 603.54 1445.1"/>
      <polygon class="cls-3" points="1329.06 758.8 1396.9 1104.99 1692.19 1104.99 1486.73 758.91 1329.06 758.8"/>
      <polygon class="cls-2" points="1463.55 1445.1 1596.39 2122.98 2297.64 2124.84 1894.1 1445.1 1463.55 1445.1"/>
      <polygon class="cls-1" points="1396.9 1104.99 1463.55 1445.1 1894.1 1445.1 1692.19 1104.99 1396.9 1104.99"/>
      <polygon class="cls-2" points="1248.57 357.67 1328.78 758.6 1487.68 758.93 1248.57 357.67"/>
      <polygon class="cls-2" points="1248.57 357.67 1010.65 758.6 1168.88 758.93 1248.57 357.67"/>
    </g>
  </g>
</svg>