<svg xmlns="http://www.w3.org/2000/svg" viewBox="0 0 487.26 502.98"><defs><style>.a{fill:#fff;}.b,.c{fill:none;stroke:#000;stroke-miterlimit:10;}.b{stroke-width:20px;}.c{stroke-width:12px;}</style></defs><title>navilan-white</title><path d="M366.26,289.11q-15.11,43.65-36.95,67.46a109.18,109.18,0,0,1-52.21,32.2,123.91,123.91,0,0,1-30.81,4.58,187,187,0,0,1-33.22-2.3,314.46,314.46,0,0,1-35.72-7.83q-18.49-5.14-38.08-11.91-9.68-3.36-20-7.05L99.11,357l-18.59-6.69q-8.74-3.15-15.49-5.48Q52,340.35,45.34,341.7t-9.6,9.9a43.87,43.87,0,0,0-2.27,10.56,60.63,60.63,0,0,0,.06,11.1L.23,361.74a97.48,97.48,0,0,1,0-13.48,54.33,54.33,0,0,1,2.88-14.5q7.32-21.15,24.81-26.56T72,311q8.55,3,19.65,6.92L114.38,326l23.21,8.29q11.55,4.11,21,7.39a357.75,357.75,0,0,0,56.79,15q26.42,4.49,48.41-2.27a76.52,76.52,0,0,0,36.64-24.36q15.27-17.9,26.25-49.62a214.41,214.41,0,0,0,9.84-38.29q2.53-17.13-2.89-29.85a38.61,38.61,0,0,0-9.52-14q-6.45-6.13-17.92-10.11-28.12-9.73-48.48,2.87t-32.2,46.81l-29,83.7-36.9-12.77L241.4,72.55l-77.18-26.7L68.07,323.7l-36.9-12.77L138.77,0,276,87.07l210.67-3.35.55-.23-208.56,58-28.12,23.94.68.23a64.64,64.64,0,0,1,34.45-14q18.89-1.77,39.59,5.39,19.13,6.61,30.7,18.31a71.47,71.47,0,0,1,17,27.41q6,17.46,4,39.32T366.26,289.11Z"/><circle cx="195.65" cy="101.98" r="18"/><circle class="a" cx="195.65" cy="101.98" r="5.5"/><line class="b" x1="289.66" y1="373.16" x2="272.22" y2="476.94"/><line class="c" x1="267.85" y1="470.47" x2="244.31" y2="489.72"/><line class="c" x1="306.13" y1="474.06" x2="275.88" y2="471.03"/><line class="c" x1="276.01" y1="472.13" x2="278.93" y2="502.4"/><line class="b" x1="291.15" y1="364.1" x2="334.58" y2="459.95"/><line class="c" x1="327.34" y1="457.03" x2="318.55" y2="486.13"/><line class="c" x1="361.12" y1="438.64" x2="334.32" y2="453.01"/><line class="c" x1="335.04" y1="453.85" x2="354.35" y2="477.34"/></svg>