<?xml version="1.0" encoding="UTF-8"?>
<svg id="Layer_1" xmlns="http://www.w3.org/2000/svg" version="1.1" viewBox="0 0 2800 1935">
  <!-- Generator: Adobe Illustrator 29.2.0, SVG Export Plug-In . SVG Version: 2.1.0 Build 108)  -->
  <defs>
    <style>
      .st0, .st1 {
        fill: none;
      }

      .st2 {
        fill: #9f9;
      }

      .st3 {
        font-family: Helvetica, Helvetica;
      }

      .st3, .st4, .st5, .st6, .st7 {
        isolation: isolate;
      }

      .st3, .st7 {
        font-size: 12px;
      }

      .st4 {
        font-size: 24px;
      }

      .st4, .st5 {
        font-family: Helvetica-Bold, Helvetica;
        font-weight: 700;
      }

      .st8 {
        fill: #ff9;
      }

      .st5 {
        font-size: 14px;
      }

      .st9 {
        fill: #d9b3ff;
      }

      .st1 {
        stroke: #000;
        stroke-dasharray: 4 4;
      }

      .st10 {
        fill: #9cf;
      }

      .st7 {
        font-family: ArialMT, Arial;
      }

      .st11 {
        fill: #f9f9f9;
        stroke: #ccc;
        stroke-width: 1.1px;
      }

      .st12 {
        fill: #f99;
      }

      .st13 {
        fill: #fdffa8;
      }

      .st14 {
        fill: #fc9;
      }
    </style>
  </defs>
  <path class="st0" d="M0,0"/>
  <g class="st6">
    <g class="st6">
      <g class="st6">
        <text class="st4" transform="translate(1205.9 40)"><tspan x="0" y="0">The Intellectual Map of India (Abridged)</tspan></text>
      </g>
    </g>
  </g>
  <rect class="st11" x="30" y="53" width="440" height="154"/>
  <g class="st6">
    <g class="st6">
      <g class="st6">
        <text class="st5" transform="translate(60 80)"><tspan x="0" y="0">Legend (Roles)</tspan></text>
      </g>
    </g>
  </g>
  <rect class="st8" x="60" y="100" width="15" height="15"/>
  <g class="st6">
    <g class="st6">
      <g class="st6">
        <text class="st3" transform="translate(80 112)"><tspan x="0" y="0">Religious Leader</tspan></text>
      </g>
    </g>
  </g>
  <rect class="st10" x="60" y="120" width="15" height="15"/>
  <g class="st6">
    <g class="st6">
      <g class="st6">
        <text class="st3" transform="translate(80 132)"><tspan x="0" y="0">Philosopher</tspan></text>
      </g>
    </g>
  </g>
  <rect class="st14" x="60" y="140" width="15" height="15"/>
  <g class="st6">
    <g class="st6">
      <g class="st6">
        <text class="st3" transform="translate(80 152)"><tspan x="0" y="0">Spiritual Leader</tspan></text>
      </g>
    </g>
  </g>
  <rect class="st12" x="210" y="100" width="15" height="15"/>
  <g class="st6">
    <g class="st6">
      <g class="st6">
        <text class="st3" transform="translate(230 112)"><tspan x="0" y="0">Politician / Statesman</tspan></text>
      </g>
    </g>
  </g>
  <rect class="st2" x="210" y="120" width="15" height="15"/>
  <g class="st6">
    <g class="st6">
      <g class="st6">
        <text class="st3" transform="translate(230 132)"><tspan x="0" y="0">Mathematician / Astronomer</tspan></text>
      </g>
    </g>
  </g>
  <rect class="st9" x="210" y="140" width="15" height="15"/>
  <g class="st6">
    <g class="st6">
      <g class="st6">
        <text class="st3" transform="translate(230 152)"><tspan x="0" y="0">Writer / Poet</tspan></text>
      </g>
    </g>
  </g>
  <rect class="st13" x="350" y="100" width="15" height="15"/>
  <g class="st6">
    <g class="st6">
      <g class="st6">
        <text class="st3" transform="translate(370 112)"><tspan x="0" y="0">Social Reformer</tspan></text>
      </g>
    </g>
  </g>
  <line class="st1" x1="50" y1="250" x2="2750" y2="250"/>
  <g class="st6">
    <g class="st6">
      <g class="st6">
        <text class="st5" transform="translate(60 240)"><tspan x="0" y="0">1) Early Vedic / Upanishadic (c.1500–500 BCE)</tspan></text>
      </g>
    </g>
  </g>
  <rect class="st10" x="430" y="270" width="50" height="20"/>
  <g class="st6">
    <g class="st6">
      <g class="st6">
        <text class="st3" transform="translate(485 285)"><tspan x="0" y="0">Yājñavalkya (Upanishads)</tspan></text>
      </g>
    </g>
  </g>
  <rect class="st10" x="470" y="300" width="50" height="20"/>
  <g class="st6">
    <g class="st6">
      <g class="st6">
        <text class="st3" transform="translate(525 315)"><tspan x="0" y="0">Bṛhaspati (Cārvāka)</tspan></text>
      </g>
    </g>
  </g>
  <line class="st1" x1="50" y1="340" x2="2750" y2="340"/>
  <g class="st6">
    <g class="st6">
      <g class="st6">
        <text class="st5" transform="translate(60 330)"><tspan x="0" y="0">2) Shramana Movements (6th–5th BCE)</tspan></text>
      </g>
    </g>
  </g>
  <rect class="st14" x="465" y="360" width="40" height="20"/>
  <g class="st6">
    <g class="st6">
      <g class="st6">
        <text class="st3" transform="translate(510 375)"><tspan x="0" y="0">Mahavira (Jainism)</tspan></text>
      </g>
    </g>
  </g>
  <rect class="st14" x="480" y="390" width="40" height="20"/>
  <g class="st6">
    <g class="st6">
      <g class="st6">
        <text class="st3" transform="translate(525 405)"><tspan x="0" y="0">Siddhartha (Buddhism)</tspan></text>
      </g>
    </g>
  </g>
  <rect class="st10" x="500" y="420" width="25" height="20"/>
  <g class="st6">
    <g class="st6">
      <g class="st6">
        <text class="st3" transform="translate(530 435)"><tspan x="0" y="0">Gosāla (Ajivika)</tspan></text>
      </g>
    </g>
  </g>
  <line class="st1" x1="50" y1="460" x2="2750" y2="460"/>
  <g class="st6">
    <g class="st6">
      <g class="st6">
        <text class="st5" transform="translate(60 450)"><tspan x="0" y="0">3) Early System-Builders (5th–2nd BCE)</tspan></text>
      </g>
    </g>
  </g>
  <rect class="st10" x="535" y="480" width="40" height="20"/>
  <g class="st6">
    <g class="st6">
      <g class="st6">
        <text class="st3" transform="translate(580 495)"><tspan x="0" y="0">Pāṇini (Ashtadhyayi)</tspan></text>
      </g>
    </g>
  </g>
  <rect class="st12" x="535" y="510" width="40" height="20"/>
  <g class="st6">
    <g class="st6">
      <g class="st6">
        <text class="st3" transform="translate(580 525)"><tspan x="0" y="0">Kauṭilya (Arthaśāstra)</tspan></text>
      </g>
    </g>
  </g>
  <rect class="st9" x="605" y="540" width="40" height="20"/>
  <g class="st6">
    <g class="st6">
      <g class="st6">
        <text class="st3" transform="translate(650 555)"><tspan x="0" y="0">Tolkāppiyar (Tolkāppiyam)</tspan></text>
      </g>
    </g>
  </g>
  <line class="st1" x1="50" y1="580" x2="2750" y2="580"/>
  <g class="st6">
    <g class="st6">
      <g class="st6">
        <text class="st5" transform="translate(60 570)"><tspan x="0" y="0">4) Classical &amp; Gupta (2nd BCE–6th CE)</tspan></text>
      </g>
    </g>
  </g>
  <rect class="st10" x="600" y="600" width="50" height="20"/>
  <g class="st6">
    <g class="st6">
      <g class="st6">
        <text class="st3" transform="translate(655 615)"><tspan x="0" y="0">Akṣapāda (Nyāya)</tspan></text>
      </g>
    </g>
  </g>
  <rect class="st10" x="600" y="630" width="50" height="20"/>
  <g class="st6">
    <g class="st6">
      <g class="st6">
        <text class="st3" transform="translate(655 645)"><tspan x="0" y="0">Kaṇāda (Vaiśeṣika)</tspan></text>
      </g>
    </g>
  </g>
  <rect class="st10" x="600" y="660" width="50" height="20"/>
  <g class="st6">
    <g class="st6">
      <g class="st6">
        <text class="st3" transform="translate(655 675)"><tspan x="0" y="0">Kapila (Sāṃkhya)</tspan></text>
      </g>
    </g>
  </g>
  <rect class="st10" x="600" y="690" width="50" height="20"/>
  <g class="st6">
    <g class="st6">
      <g class="st6">
        <text class="st3" transform="translate(655 705)"><tspan x="0" y="0">Patañjali (Yoga)</tspan></text>
      </g>
    </g>
  </g>
  <rect class="st10" x="600" y="720" width="50" height="20"/>
  <g class="st6">
    <g class="st6">
      <g class="st6">
        <text class="st3" transform="translate(655 735)"><tspan x="0" y="0">Jaimini (Purva Mimamsa)</tspan></text>
      </g>
    </g>
  </g>
  <rect class="st10" x="600" y="750" width="50" height="20"/>
  <g class="st6">
    <g class="st6">
      <g class="st6">
        <text class="st3" transform="translate(655 765)"><tspan x="0" y="0">Bādarāyaṇa (Brahma Sutras)</tspan></text>
      </g>
    </g>
  </g>
  <rect class="st10" x="782.8" y="598.4" width="40" height="20"/>
  <g class="st6">
    <g class="st6">
      <g class="st6">
        <text class="st3" transform="translate(827.8 613.4)"><tspan x="0" y="0">Nāgārjuna (Mādhyamika)</tspan></text>
      </g>
    </g>
  </g>
  <rect class="st10" x="800" y="630" width="40" height="20"/>
  <g class="st6">
    <g class="st6">
      <g class="st6">
        <text class="st3" transform="translate(845 645)"><tspan x="0" y="0">Vasubandhu (Yogācāra)</tspan></text>
      </g>
    </g>
  </g>
  <rect class="st10" x="815" y="660" width="40" height="20"/>
  <g class="st6">
    <g class="st6">
      <g class="st6">
        <text class="st3" transform="translate(860 675)"><tspan x="0" y="0">Dignāga (Buddhist Logic)</tspan></text>
      </g>
    </g>
  </g>
  <rect class="st8" x="767" y="689.8" width="40" height="20"/>
  <g class="st6">
    <g class="st6">
      <g class="st6">
        <text class="st3" transform="translate(812 704.8)"><tspan x="0" y="0">Kundakunda (Jain)</tspan></text>
      </g>
    </g>
  </g>
  <rect class="st8" x="806.5" y="719.7" width="40" height="20"/>
  <g class="st6">
    <g class="st6">
      <g class="st6">
        <text class="st3" transform="translate(851.5 734.7)"><tspan x="0" y="0">Umaswati (Tattvartha)</tspan></text>
      </g>
    </g>
  </g>
  <rect class="st2" x="1007.6" y="598.6" width="40" height="20"/>
  <g class="st6">
    <g class="st6">
      <g class="st6">
        <text class="st3" transform="translate(1052.6 613.6)"><tspan x="0" y="0">Āryabhaṭa</tspan></text>
      </g>
    </g>
  </g>
  <rect class="st9" x="820" y="750" width="40" height="20"/>
  <g class="st6">
    <g class="st6">
      <g class="st6">
        <text class="st3" transform="translate(865 765)"><tspan x="0" y="0">Kālidāsa (Shakuntala)</tspan></text>
      </g>
    </g>
  </g>
  <rect class="st9" x="830" y="780" width="40" height="20"/>
  <g class="st6">
    <g class="st6">
      <g class="st6">
        <text class="st3" transform="translate(875 795)"><tspan x="0" y="0">Thiruvalluvar (Tirukkural)</tspan></text>
      </g>
    </g>
  </g>
  <line class="st1" x1="50" y1="820" x2="2750" y2="820"/>
  <g class="st6">
    <g class="st6">
      <g class="st6">
        <text class="st5" transform="translate(60 810)"><tspan x="0" y="0">5) Early Medieval Vedanta (7th–11th CE)</tspan></text>
      </g>
    </g>
  </g>
  <rect class="st9" x="807.7" y="541.2" width="80" height="20"/>
  <g class="st6">
    <g class="st6">
      <g class="st6">
        <text class="st3" transform="translate(892.7 556.2)"><tspan x="0" y="0">Valmiki (Ramayana)</tspan></text>
      </g>
    </g>
  </g>
  <rect class="st9" x="1018.5" y="542.4" width="80" height="20"/>
  <g class="st6">
    <g class="st6">
      <g class="st6">
        <text class="st3" transform="translate(1103.5 557.4)"><tspan x="0" y="0">Vyasa (Mahabharata)</tspan></text>
      </g>
    </g>
  </g>
  <rect class="st9" x="1241.6" y="542.4" width="85" height="20"/>
  <g class="st6">
    <g class="st6">
      <g class="st6">
        <text class="st3" transform="translate(1331.6 557.4)"><tspan x="0" y="0">Ilango Adigal (Silappathikaram)</tspan></text>
      </g>
    </g>
  </g>
  <rect class="st9" x="1528.3" y="543" width="75" height="20"/>
  <g class="st6">
    <g class="st6">
      <g class="st6">
        <text class="st3" transform="translate(1608.3 558)"><tspan x="0" y="0">Sathanar (Manimekalai)</tspan></text>
      </g>
    </g>
  </g>
  <rect class="st14" x="1041.5" y="748.4" width="85" height="20"/>
  <g class="st6">
    <g class="st6">
      <g class="st6">
        <text class="st3" transform="translate(1131.5 763.4)"><tspan x="0" y="0">Banabhatta (Harshacharita)</tspan></text>
      </g>
    </g>
  </g>
  <rect class="st9" x="1637.1" y="1109" width="90" height="20"/>
  <g class="st6">
    <g class="st6">
      <g class="st6">
        <text class="st3" transform="translate(1732.1 1124)"><tspan x="0" y="0">Kamban (Kamba Ramayanam)</tspan></text>
      </g>
    </g>
  </g>
  <rect class="st9" x="1399.5" y="1109" width="90" height="20"/>
  <g class="st6">
    <g class="st6">
      <g class="st6">
        <text class="st3" transform="translate(1494.5 1124)"><tspan x="0" y="0">Kalhana (Rajatarangini)</tspan></text>
      </g>
    </g>
  </g>
  <rect class="st9" x="1358" y="1227" width="95" height="20"/>
  <g class="st6">
    <g class="st6">
      <g class="st6">
        <text class="st3" transform="translate(1457 1242)"><tspan x="0" y="0">Krittivas (Krittivasi Ramayan)</tspan></text>
      </g>
    </g>
  </g>
  <rect class="st9" x="1513" y="1408" width="80" height="20"/>
  <g class="st6">
    <g class="st6">
      <g class="st6">
        <text class="st3" transform="translate(1597 1423)"><tspan x="0" y="0">Tulsidas (Ramcharitmanas)</tspan></text>
      </g>
    </g>
  </g>
  <rect class="st10" x="880" y="840" width="30" height="20"/>
  <g class="st6">
    <g class="st6">
      <g class="st6">
        <text class="st3" transform="translate(915 855)"><tspan x="0" y="0">Gaudapāda (Mandukya Karika)</tspan></text>
      </g>
    </g>
  </g>
  <rect class="st14" x="950" y="870" width="30" height="20"/>
  <g class="st6">
    <g class="st6">
      <g class="st6">
        <text class="st3" transform="translate(985 885)"><tspan x="0" y="0">Ādi Śaṅkara (Advaita)</tspan></text>
      </g>
    </g>
  </g>
  <rect class="st14" x="1025" y="900" width="30" height="20"/>
  <g class="st6">
    <g class="st6">
      <g class="st6">
        <text class="st3" transform="translate(1060 915)"><tspan x="0" y="0">Rāmānuja (Vishishtadvaita)</tspan></text>
      </g>
    </g>
  </g>
  <rect class="st14" x="930" y="930" width="50" height="20"/>
  <g class="st6">
    <g class="st6">
      <g class="st6">
        <text class="st3" transform="translate(985 945)"><tspan x="0" y="0">Alvars (Vaishnava)</tspan></text>
      </g>
    </g>
  </g>
  <rect class="st14" x="930" y="960" width="50" height="20"/>
  <g class="st6">
    <g class="st6">
      <g class="st6">
        <text class="st3" transform="translate(985 975)"><tspan x="0" y="0">Nayanmars (Shaiva)</tspan></text>
      </g>
    </g>
  </g>
  <rect class="st14" x="935" y="990" width="40" height="20"/>
  <g class="st6">
    <g class="st6">
      <g class="st6">
        <text class="st3" transform="translate(980 1005)"><tspan x="0" y="0">Haribhadra Suri (Jain)</tspan></text>
      </g>
    </g>
  </g>
  <rect class="st10" x="1060" y="1020" width="40" height="20"/>
  <g class="st6">
    <g class="st6">
      <g class="st6">
        <text class="st3" transform="translate(1105 1035)"><tspan x="0" y="0">Hemachandra (Jain)</tspan></text>
      </g>
    </g>
  </g>
  <line class="st1" x1="50" y1="1060" x2="2750" y2="1060"/>
  <g class="st6">
    <g class="st6">
      <g class="st6">
        <text class="st5" transform="translate(60 1050)"><tspan x="0" y="0">6) Bhakti &amp; Sufi (12th–17th CE)</tspan></text>
      </g>
    </g>
  </g>
  <rect class="st14" x="1060" y="1080" width="25" height="20"/>
  <g class="st6">
    <g class="st6">
      <g class="st6">
        <text class="st3" transform="translate(1090 1095)"><tspan x="0" y="0">Basavanna (Lingayat)</tspan></text>
      </g>
    </g>
  </g>
  <rect class="st14" x="1092" y="1170" width="30" height="20"/>
  <g class="st6">
    <g class="st6">
      <g class="st6">
        <text class="st3" transform="translate(1127 1185)"><tspan x="0" y="0">Madhva (Dvaita)</tspan></text>
      </g>
    </g>
  </g>
  <rect class="st9" x="1127" y="1200" width="40" height="20"/>
  <g class="st6">
    <g class="st6">
      <g class="st6">
        <text class="st3" transform="translate(1172 1215)"><tspan x="0" y="0">Avvaiyar (Tamil poet)</tspan></text>
      </g>
    </g>
  </g>
  <rect class="st8" x="1175" y="1258" width="30" height="20"/>
  <g class="st6">
    <g class="st6">
      <g class="st6">
        <text class="st3" transform="translate(1206 1273)"><tspan x="0" y="0">Kabir</tspan></text>
      </g>
    </g>
  </g>
  <rect class="st8" x="1164" y="1288" width="30" height="20"/>
  <g class="st6">
    <g class="st6">
      <g class="st6">
        <text class="st3" transform="translate(1196 1303)"><tspan x="0" y="0">Annamacharya</tspan></text>
      </g>
    </g>
  </g>
  <rect class="st9" x="1179" y="1318" width="30" height="20"/>
  <g class="st6">
    <g class="st6">
      <g class="st6">
        <text class="st3" transform="translate(1211 1333)"><tspan x="0" y="0">Potana</tspan></text>
      </g>
    </g>
  </g>
  <rect class="st8" x="1238" y="1348" width="30" height="20"/>
  <g class="st6">
    <g class="st6">
      <g class="st6">
        <text class="st3" transform="translate(1271 1363)"><tspan x="0" y="0">Ramadasu</tspan></text>
      </g>
    </g>
  </g>
  <rect class="st8" x="1249" y="1378" width="25" height="20"/>
  <g class="st6">
    <g class="st6">
      <g class="st6">
        <text class="st3" transform="translate(1279 1393)"><tspan x="0" y="0">Vemana</tspan></text>
      </g>
    </g>
  </g>
  <rect class="st8" x="1191" y="1408" width="25" height="20"/>
  <g class="st6">
    <g class="st6">
      <g class="st6">
        <text class="st3" transform="translate(1221 1423)"><tspan x="0" y="0">Chaitanya (Gaudiya)</tspan></text>
      </g>
    </g>
  </g>
  <rect class="st8" x="1346.8" y="1408" width="25" height="20"/>
  <g class="st6">
    <g class="st6">
      <g class="st6">
        <text class="st3" transform="translate(1376.8 1423)"><tspan x="0" y="0">Guru Nanak (Sikhism)</tspan></text>
      </g>
    </g>
  </g>
  <rect class="st14" x="1059.5" y="1108.6" width="60" height="20"/>
  <rect class="st14" x="1092.3" y="1140.1" width="60" height="20"/>
  <g class="st6">
    <g class="st6">
      <text class="st7" transform="translate(1123.5 1123.6)"><tspan x="0" y="0">Moinuddin Chishti (Chishti Order; Ajmer Sharif)</tspan></text>
    </g>
  </g>
  <rect class="st10" x="1150.5" y="1227.5" width="60" height="20"/>
  <g class="st6">
    <g class="st6">
      <text class="st7" transform="translate(1155.3 1155.1)"><tspan x="0" y="0">Baba Farid (Shlokas in Guru Granth Sahib)</tspan></text>
    </g>
  </g>
  <rect class="st14" x="1397.2" y="1141.2" width="60" height="20"/>
  <g class="st6">
    <g class="st6">
      <text class="st7" transform="translate(1464.2 1155.2)"><tspan x="0" y="0">Nizamuddin Auliya (Fawāʾid al-Fuʾād)</tspan></text>
    </g>
  </g>
  <g class="st6">
    <g class="st6">
      <g class="st6">
        <text class="st3" transform="translate(1220.8 1242.4)"><tspan x="0" y="0">Pavanandi (Nannūl)</tspan></text>
      </g>
    </g>
  </g>
  <line class="st1" x1="50" y1="1450" x2="2750" y2="1450"/>
  <g class="st6">
    <g class="st6">
      <g class="st6">
        <text class="st5" transform="translate(60 1440)"><tspan x="0" y="0">7) Early Modern (17th–19th CE)</tspan></text>
      </g>
    </g>
  </g>
  <rect class="st8" x="1218" y="1470" width="25" height="20"/>
  <g class="st6">
    <g class="st6">
      <g class="st6">
        <text class="st3" transform="translate(1250 1485)"><tspan x="0" y="0">Dadu Dayal</tspan></text>
      </g>
    </g>
  </g>
  <rect class="st13" x="1295" y="1500" width="30" height="20"/>
  <g class="st6">
    <g class="st6">
      <g class="st6">
        <text class="st3" transform="translate(1330 1515)"><tspan x="0" y="0">R. R. M. Roy (Brahmo Samaj)</tspan></text>
      </g>
    </g>
  </g>
  <rect class="st8" x="1313" y="1530" width="25" height="20"/>
  <g class="st6">
    <g class="st6">
      <g class="st6">
        <text class="st3" transform="translate(1345 1545)"><tspan x="0" y="0">Dayananda (Arya Samaj)</tspan></text>
      </g>
    </g>
  </g>
  <rect class="st9" x="1293" y="1560" width="40" height="20"/>
  <g class="st6">
    <g class="st6">
      <g class="st6">
        <text class="st3" transform="translate(1335 1575)"><tspan x="0" y="0">Tyagaraja</tspan></text>
      </g>
    </g>
  </g>
  <line class="st1" x1="50" y1="1600" x2="2750" y2="1600"/>
  <g class="st6">
    <g class="st6">
      <g class="st6">
        <text class="st5" transform="translate(60 1590)"><tspan x="0" y="0">8) Modern Spiritual Reformers (19th–20th CE)</tspan></text>
      </g>
    </g>
  </g>
  <rect class="st14" x="1318" y="1620" width="25" height="20"/>
  <g class="st6">
    <g class="st6">
      <g class="st6">
        <text class="st3" transform="translate(1350 1635)"><tspan x="0" y="0">Ramakrishna (Religious Unity)</tspan></text>
      </g>
    </g>
  </g>
  <rect class="st14" x="1327" y="1650" width="25" height="20"/>
  <g class="st6">
    <g class="st6">
      <g class="st6">
        <text class="st3" transform="translate(1360 1665)"><tspan x="0" y="0">Vivekananda (RK Mission)</tspan></text>
      </g>
    </g>
  </g>
  <rect class="st14" x="1330" y="1680" width="30" height="20"/>
  <g class="st6">
    <g class="st6">
      <g class="st6">
        <text class="st3" transform="translate(1365 1695)"><tspan x="0" y="0">Aurobindo (Integral Yoga)</tspan></text>
      </g>
    </g>
  </g>
  <rect class="st9" x="1326" y="1710" width="25" height="20"/>
  <g class="st6">
    <g class="st6">
      <g class="st6">
        <text class="st3" transform="translate(1360 1725)"><tspan x="0" y="0">Tagore (Gitanjali)</tspan></text>
      </g>
    </g>
  </g>
  <rect class="st12" x="1329" y="1740" width="25" height="20"/>
  <g class="st6">
    <g class="st6">
      <g class="st6">
        <text class="st3" transform="translate(1360 1755)"><tspan x="0" y="0">Gandhi (Ahimsa)</tspan></text>
      </g>
    </g>
  </g>
  <rect class="st12" x="1338" y="1770" width="30" height="20"/>
  <g class="st6">
    <g class="st6">
      <g class="st6">
        <text class="st3" transform="translate(1375 1785)"><tspan x="0" y="0">Ambedkar (Constitution)</tspan></text>
      </g>
    </g>
  </g>
  <rect class="st14" x="1338" y="1800" width="25" height="20"/>
  <g class="st6">
    <g class="st6">
      <g class="st6">
        <text class="st3" transform="translate(1370 1815)"><tspan x="0" y="0">Krishnamurti (Choiceless Awareness)</tspan></text>
      </g>
    </g>
  </g>
  <line class="st1" x1="50" y1="1870" x2="2750" y2="1870"/>
  <g class="st6">
    <g class="st6">
      <g class="st6">
        <text class="st5" transform="translate(60 1860)"><tspan x="0" y="0">9) Contemporary (20th–21st CE)</tspan></text>
      </g>
    </g>
  </g>
  <rect class="st14" x="1352" y="1890" width="25" height="20"/>
  <g class="st6">
    <g class="st6">
      <g class="st6">
        <text class="st3" transform="translate(1382 1905)"><tspan x="0" y="0">14th Dalai Lama (Tibet)</tspan></text>
      </g>
    </g>
  </g>
  <path d="M0,0"/>
  <rect class="st8" x="657.9" y="268.8" width="40" height="20"/>
  <g class="st6">
    <g class="st6">
      <g class="st6">
        <text class="st3" transform="translate(702.9 283.8)"><tspan x="0" y="0">Pre-vedic traditions</tspan></text>
      </g>
    </g>
  </g>
</svg>